<svg viewBox="0 0 221 123" xmlns="http://www.w3.org/2000/svg" fill-rule="evenodd" clip-rule="evenodd" stroke-linejoin="round" stroke-miterlimit="1.414"><path fill="#fff" d="M217.274 122.443H3.75c-1.69 0-3.129-1.402-3.129-3.13v-8.235h219.783v8.236a3.114 3.114 0 0 1-3.129 3.129zM132.54 111.09H88.546v3.623a3.114 3.114 0 0 0 3.129 3.129h37.736c1.69 0 3.13-1.402 3.13-3.129v-3.623zm59.64-3.887H28.843a5.068 5.068 0 0 1-5.07-5.088V5.41a5.068 5.068 0 0 1 5.07-5.088h163.335c2.817 0 5.132 2.278 5.132 5.088v96.706c0 2.81-2.315 5.088-5.132 5.088zM188.987 9.04H32.098v89.447h156.89V9.04zM121.213 54.9c.063 5.487 5.194 7.315 5.257 7.34-.063.131-.814 2.603-2.691 5.163-1.69 2.209-3.38 4.412-6.008 4.456-2.628.043-3.504-1.44-6.446-1.44-3.004 0-3.942 1.396-6.446 1.483-2.565.094-4.505-2.39-6.195-4.593-3.317-4.506-5.883-12.729-2.44-18.28 1.689-2.753 4.755-4.5 8.072-4.55 2.566-.043 4.944 1.577 6.446 1.577 1.565 0 4.443-1.946 7.51-1.658 1.251.044 4.881.476 7.134 3.598-.125.107-4.256 2.31-4.193 6.903zm-4.944-13.487c1.377-1.533 2.316-3.667 2.065-5.789-2.002.07-4.38 1.214-5.757 2.748-1.314 1.358-2.378 3.53-2.128 5.613 2.253.156 4.443-1.033 5.82-2.572zm-5.757-38.581c1.064 0 1.94.87 1.94 1.946a1.952 1.952 0 0 1-1.94 1.953 1.952 1.952 0 0 1-1.94-1.953c0-1.076.876-1.946 1.94-1.946z"/></svg>