<svg viewBox="0 0 120 101" xmlns="http://www.w3.org/2000/svg" fill-rule="evenodd" clip-rule="evenodd" stroke-linejoin="round" stroke-miterlimit="1.414"><path fill="#fff" d="M109.939 100.67H9.872c-5.257 0-9.512-4.256-9.512-9.494V10.441C.36 5.196 4.615.947 9.872.947H109.94c5.256 0 9.512 4.25 9.512 9.494v80.735c0 5.238-4.256 9.494-9.512 9.494zm1.502-76.943H8.37v62.5a6.576 6.576 0 0 0 6.57 6.576h89.929a6.576 6.576 0 0 0 6.57-6.577v-62.5zM60.938 78.29H58.81v-.031a18.895 18.895 0 0 1-2.128-.232c-.813-.125-1.564-.3-2.315-.513a25.17 25.17 0 0 1-2.19-.751 20.216 20.216 0 0 1-3.567-1.965 35.328 35.328 0 0 1-1.315-.97c-.438-.35-.876-.726-1.251-1.114-.188-.17-.376-.338-.5-.507a12.664 12.664 0 0 1-1.002-1.114c-.5-.57-.939-1.17-1.377-1.784-.25-.438-.563-.888-.814-1.345-.187-.37-.375-.751-.563-1.133-.062-.087-.062-.181-.125-.269h-.062v-.119c-.25-.538-.439-1.089-.626-1.646-.125-.287-.188-.582-.313-.882-.125-.394-.188-.795-.313-1.195l-.188-.851c-.062-.313-.062-.62-.125-.933-.063-.463-.125-.926-.125-1.39-.125-1.776 0-3.573.375-5.319.063-.381.125-.77.25-1.145.063-.181.126-.363.126-.538.125-.313.25-.626.313-.932.125-.288.25-.576.313-.858.187-.338.313-.676.5-1.007.188-.42.376-.833.626-1.24.751-1.351 1.627-2.609 2.691-3.754.313-.37.688-.726 1.064-1.07.5-.451 1.001-.883 1.502-1.283.25-.194.5-.388.75-.57.251-.175.501-.338.752-.5.25-.138.438-.276.688-.407.626-.344 1.19-.657 1.815-.939a21.715 21.715 0 0 1 2.315-.864 19.882 19.882 0 0 1 2.817-.65c.688-.1 1.314-.17 2.002-.207v-.025h2.128v.025H61a24.16 24.16 0 0 1 1.752.175c1.001.144 1.94.357 2.878.645.564.156 1.064.325 1.565.52.25.118.563.243.876.381a20.842 20.842 0 0 1 5.257 3.417c.25.244.5.488.75.745.877.87 1.628 1.815 2.316 2.822.501.714.94 1.458 1.377 2.234a17.28 17.28 0 0 1 1.314 3.461c.25.657.376 1.32.501 1.996.063.326.125.657.125.99.063.337.125.675.125 1.013 0 .169.063.338.063.507v2.059l-.188 1.833a10.772 10.772 0 0 1-.375 1.965c-.063.282-.126.557-.25.833-.126.438-.251.863-.376 1.283-.188.444-.376.876-.563 1.301v.12h-.063c0 .106-.063.218-.125.325-.438.926-.939 1.82-1.565 2.666-.438.7-.938 1.364-1.502 1.99-.375.406-.75.794-1.126 1.17-.438.4-.876.788-1.314 1.151a20.728 20.728 0 0 1-4.882 2.898 18.38 18.38 0 0 1-2.503.845 19.174 19.174 0 0 1-4.13.65v.032zm7.197-11.728h-7.197v9.2c.063-.013.125-.032.188-.044.313-.075.563-.175.813-.294.188-.082.376-.176.563-.282.25-.119.439-.257.626-.4.5-.326.876-.708 1.314-1.114.126-.194.313-.395.501-.607.188-.194.313-.401.438-.607.125-.15.25-.3.376-.457.25-.463.563-.952.813-1.446.376-.7.689-1.42.939-2.159.125-.3.25-.6.375-.907.063-.295.188-.589.25-.883zm-9.325 0h-7.197c.063.138.126.276.126.413.312.995.688 1.965 1.126 2.904.25.544.563 1.076.876 1.596.25.432.563.85.876 1.251.376.495.751.97 1.252 1.39.375.338.75.644 1.189.907.25.15.5.288.75.4.189.076.314.138.502.2.125.045.312.089.438.126.062.006.062.006.062.013v-9.2zm-9.387 0h-5.382c.063.138.125.282.188.42.25.394.5.775.75 1.151.126.213.251.42.376.62.126.13.188.256.313.388.25.325.5.644.814.957.25.282.5.557.75.82.126.106.189.2.314.3.125.138.25.27.438.4.25.226.5.445.75.658a18.608 18.608 0 0 0 4.256 2.522c.313.112.563.219.876.319-.187-.175-.375-.357-.5-.544-.188-.226-.376-.464-.564-.701a31.017 31.017 0 0 1-.563-.82A8.302 8.302 0 0 1 51.613 72a7.513 7.513 0 0 1-.75-1.483 5.743 5.743 0 0 1-.564-1.32c-.062-.194-.188-.388-.25-.588 0-.063 0-.132-.063-.194 0-.1-.062-.2-.062-.3-.188-.476-.313-.965-.438-1.446l-.063-.107zm26.347 0h-5.445c0 .138-.063.276-.125.42a9.175 9.175 0 0 1-.563 1.733c-.25.7-.501 1.396-.814 2.071-.25.501-.5.99-.75 1.465-.189.3-.376.588-.564.876-.376.55-.751 1.083-1.19 1.577l-.375.413c.25-.1.564-.207.814-.32a17.592 17.592 0 0 0 4.318-2.59c.438-.325.814-.663 1.189-1.026.376-.332.688-.682 1.001-1.045.188-.176.313-.35.438-.532.126-.113.188-.226.313-.338.313-.42.626-.864.939-1.315.125-.181.188-.362.313-.544.062-.1.125-.188.188-.288.062-.181.187-.37.313-.557zM48.922 52.345h-5.945c-.125.319-.187.638-.313.964-.062.212-.125.425-.125.644-.062.107-.062.213-.125.32l-.188 1.213c-.062.126-.062.257-.062.382-.063.357-.125.72-.125 1.077v.225c-.063.213-.063.42-.063.632v1.151c0 .213.063.42.063.632 0 .357.062.714.125 1.07 0 .132 0 .257.062.389l.188 1.207c.063.107.063.22.125.326 0 .213.063.425.125.638.063.106.063.207.126.313 0 .056 0 .106.062.163.063.25.125.5.25.744h5.883c-.063-.319-.125-.644-.188-.97a29.333 29.333 0 0 1-.375-3.304v-3.805c.062-.119.062-.244.062-.363v-.482c.063-.313.063-.632.126-.945.062-.744.187-1.483.312-2.221zm19.776 0h-7.76v12.09h7.697c.126-.607.25-1.22.313-1.833.125-1.001.25-2.003.25-3.01.063-.307.063-.614.063-.927V57.39c-.062-.457-.062-.908-.062-1.364l-.188-1.665c-.063-.676-.188-1.346-.313-2.015zm8.073 0h-5.945c.062.238.125.475.125.713l.188 1.04c0 .268.062.544.062.819.063.319.063.638.063.957.062.445.062.889.062 1.333.063.244.063.495.063.739 0 .857 0 1.72-.063 2.578l-.187 2.015-.188 1.27c-.063.207-.063.42-.125.626h5.882v-.018c.063-.188.125-.382.188-.576 0-.05 0-.05.063-.1 0-.157.062-.313.125-.476l.187-.745c.126-.525.25-1.05.313-1.583a14.67 14.67 0 0 0 .188-3.31c0-.4-.062-.801-.062-1.196-.063-.169-.063-.338-.063-.5 0-.113-.063-.226-.063-.338-.062-.294-.062-.589-.125-.883a69.432 69.432 0 0 0-.188-.7c0-.113-.062-.22-.062-.326a3.478 3.478 0 0 0-.25-.745c-.063-.2-.126-.394-.188-.594zm-17.96 0h-7.698c-.063.206-.125.413-.125.62a21.706 21.706 0 0 0-.376 2.834c0 .3-.062.607-.062.908v3.223l.187 1.908c.063.87.188 1.74.376 2.597h7.697v-12.09zm-4.82-10.996c-.5.17-.938.363-1.439.576-.563.25-1.064.526-1.627.839-.188.112-.375.237-.563.363-.25.144-.5.294-.689.444-.25.169-.5.338-.688.513-.063.056-.188.107-.25.163a31.16 31.16 0 0 0-1.127.989c-.313.306-.626.625-.938.957a23.173 23.173 0 0 0-1.628 2.065 4.16 4.16 0 0 1-.438.639c-.125.225-.25.456-.375.694-.125.207-.25.42-.313.626h5.507c.063-.288.125-.582.188-.876.062-.169.125-.344.188-.513l.187-.607c.125-.395.313-.783.438-1.17.25-.589.501-1.165.814-1.734.188-.426.438-.851.688-1.258.188-.32.376-.626.626-.932.438-.626.939-1.227 1.44-1.778zm6.947-.475v9.343h7.26c-.126-.344-.251-.682-.314-1.026-.25-.626-.438-1.246-.75-1.853-.126-.356-.313-.707-.501-1.057-.063-.125-.125-.257-.188-.382-.188-.394-.438-.776-.688-1.152a31.995 31.995 0 0 0-.564-.832 29.17 29.17 0 0 0-.563-.638 2.537 2.537 0 0 0-.438-.47 27.16 27.16 0 0 0-.375-.381 7.434 7.434 0 0 0-1.19-.87 5.459 5.459 0 0 0-1.439-.626c-.125-.019-.187-.038-.25-.056zm4.819.475c.062.07.125.132.187.2.126.145.313.295.438.451.126.2.313.407.501.62.188.263.376.532.563.807.25.338.438.688.626 1.039.313.482.563.97.751 1.47.313.651.626 1.315.814 1.99.313.752.563 1.521.75 2.291h5.508c0-.019-.063-.031-.063-.05-.313-.688-.75-1.358-1.189-1.996a18.692 18.692 0 0 0-1.877-2.335c-.25-.256-.501-.507-.751-.75-.25-.188-.438-.382-.689-.564-.25-.231-.563-.45-.813-.67a9.6 9.6 0 0 0-1.002-.669 18.489 18.489 0 0 0-3.129-1.596c-.187-.087-.438-.163-.625-.238zm-6.947-.475c-.062.018-.125.031-.188.05-.187.05-.375.106-.563.181a7.238 7.238 0 0 0-.938.463c-.439.25-.814.539-1.19.858-.125.125-.25.25-.375.381-.125.15-.313.307-.438.47-.188.206-.376.42-.5.638-.251.27-.439.55-.627.832a4.606 4.606 0 0 0-.438.776l-.187.3c-.063.076-.063.151-.125.226-.376.695-.689 1.414-1.002 2.147l-.375 1.089c0 .062 0 .125-.063.187-.062.188-.125.376-.125.57-.063.056-.063.119-.063.175h7.197v-9.343zM96.36 9.646H8.37V18.4h87.99V9.646zm15.082 0h-9.826V18.4h9.826V9.646z"/></svg>