<svg viewBox="0 0 97 125" xmlns="http://www.w3.org/2000/svg" fill-rule="evenodd" clip-rule="evenodd" stroke-linejoin="round" stroke-miterlimit="1.414"><path fill="#fff" d="M89.104 124.67H8.124a7.696 7.696 0 0 1-7.697-7.698V8.238A7.696 7.696 0 0 1 8.124.54h80.98A7.696 7.696 0 0 1 96.8 8.238v108.734a7.696 7.696 0 0 1-7.697 7.697zm-40.49-12.241c2.754 0 4.944 2.227 4.944 4.968a4.938 4.938 0 0 1-4.944 4.963 4.938 4.938 0 0 1-4.944-4.963c0-2.74 2.19-4.968 4.944-4.968zm37.11-100.887h-74.22v98.44h74.22v-98.44zM59.315 60.305c.063 5.495 5.195 7.322 5.257 7.347-.062.125-.813 2.603-2.753 5.157-1.627 2.209-3.317 4.412-5.946 4.462-2.628.043-3.504-1.446-6.508-1.446-2.941 0-3.88 1.396-6.383 1.49-2.566.087-4.569-2.391-6.196-4.594-3.379-4.506-5.945-12.729-2.44-18.28 1.69-2.76 4.756-4.506 8.073-4.55 2.503-.043 4.88 1.577 6.445 1.577 1.565 0 4.444-1.952 7.51-1.664 1.252.05 4.881.482 7.134 3.598-.187.107-4.255 2.316-4.193 6.903zm-4.943-13.48c1.376-1.533 2.315-3.667 2.065-5.795-2.003.075-4.381 1.22-5.82 2.754-1.252 1.358-2.378 3.53-2.065 5.607 2.19.163 4.443-1.033 5.82-2.566zM48.614 4.539c1.19 0 2.128.964 2.128 2.153a2.13 2.13 0 0 1-2.128 2.146 2.13 2.13 0 0 1-2.128-2.146c0-1.19.94-2.153 2.128-2.153z"/></svg>