<svg viewBox="0 0 97 125" xmlns="http://www.w3.org/2000/svg" fill-rule="evenodd" clip-rule="evenodd" stroke-linejoin="round" stroke-miterlimit="1.414"><path fill="#fff" d="M88.729 124.671H7.749a7.696 7.696 0 0 1-7.697-7.697V8.234C.052 3.99 3.494.541 7.749.535h80.98c4.255.006 7.697 3.454 7.697 7.697v108.74a7.7 7.7 0 0 1-7.697 7.698zm-32.793-9.925H42.732c-.688 0-1.252.544-1.252 1.22v2.447c0 .676.564 1.227 1.252 1.227h13.204c.626 0 1.19-.55 1.19-1.227v-2.447c0-.676-.564-1.22-1.19-1.22zM85.35 11.538H11.13v98.446h74.22V11.538zm-38.8 60.265v5.2c0 1.302-1.064 2.366-2.315 2.366a2.374 2.374 0 0 1-2.378-2.366v-5.2h-1.314a2.95 2.95 0 0 1-2.942-2.96v-15.22h21.34v15.22A2.95 2.95 0 0 1 56 71.803h-1.19v5.2a2.374 2.374 0 0 1-2.378 2.366 2.374 2.374 0 0 1-2.378-2.366v-5.2h-3.505zM36.474 55.325a2.37 2.37 0 0 0-2.378-2.365 2.37 2.37 0 0 0-2.378 2.365v10.076a2.374 2.374 0 0 0 2.378 2.365 2.374 2.374 0 0 0 2.378-2.365V55.325zm28.286 0a2.37 2.37 0 0 0-2.378-2.365 2.37 2.37 0 0 0-2.378 2.365v10.076a2.374 2.374 0 0 0 2.378 2.365 2.374 2.374 0 0 0 2.378-2.365V55.325zm-5.882-2.603H37.6c.25-3.692 2.44-6.871 5.507-8.574l-1.814-3.091c-.063-.175-.063-.394.125-.488.187-.1.375-.044.5.125l1.815 3.129a10.519 10.519 0 0 1 4.506-1.008c1.69 0 3.254.376 4.631 1.052l1.815-3.173c.125-.169.313-.225.5-.125.188.094.25.313.126.488l-1.815 3.142c3.004 1.72 5.131 4.868 5.382 8.523zM43.42 46.958a.958.958 0 0 1 0 1.915.958.958 0 0 1 0-1.915zm9.825 0c.564 0 .94.426.94.958 0 .526-.376.957-.94.957a.958.958 0 0 1 0-1.915zM48.24 4.535c1.189 0 2.19.963 2.19 2.153 0 1.189-1.001 2.152-2.19 2.152a2.131 2.131 0 0 1-2.128-2.152c0-1.19.939-2.153 2.128-2.153z"/></svg>