<svg viewBox="0 0 221 123" xmlns="http://www.w3.org/2000/svg" fill-rule="evenodd" clip-rule="evenodd" stroke-linejoin="round" stroke-miterlimit="1.414"><path fill="#fff" d="M220.133 122.443H.35v-11.265h219.783v11.265zm-23.154-14.726H23.505V.68H196.98v107.038zM188.718 9.14H31.828v89.447h156.89V9.14zm-80.166 45.878h21.528v17.61l-21.528-2.891v-14.72zm-2.002 0v14.45l-16.146-2.165V55.018h16.146zm0-1.884H90.404V40.681l16.146-2.14v14.593zm23.53 0h-21.528V38.278l21.528-2.86v17.716zM110.242 2.932c1.064 0 1.94.87 1.94 1.946a1.952 1.952 0 0 1-1.94 1.953 1.952 1.952 0 0 1-1.94-1.953c0-1.076.876-1.946 1.94-1.946z"/></svg>