<svg viewBox="0 0 220 123" xmlns="http://www.w3.org/2000/svg" fill-rule="evenodd" clip-rule="evenodd" stroke-linejoin="round" stroke-miterlimit="1.414"><path fill="#fff" d="M214.039 110.918c1.502 0 2.941.607 4.067 1.683a5.84 5.84 0 0 1 1.69 4.074v.007a5.84 5.84 0 0 1-1.69 4.074c-1.126 1.076-2.565 1.683-4.067 1.683H5.77a5.669 5.669 0 0 1-4.067-1.683c-1.127-1.083-1.69-2.547-1.69-4.074v-.007c0-1.527.563-2.99 1.69-4.074a5.669 5.669 0 0 1 4.067-1.683h208.27zm-22.467-3.874H28.237c-2.816 0-5.132-2.278-5.132-5.088V5.25c0-2.81 2.316-5.088 5.132-5.088h163.335a5.068 5.068 0 0 1 5.07 5.088v96.706a5.068 5.068 0 0 1-5.07 5.088zm-3.254-94.59a3.551 3.551 0 0 0-3.567-3.574H34.995c-1.94 0-3.567 1.602-3.567 3.573v82.3c0 1.972 1.627 3.574 3.567 3.574h149.756a3.551 3.551 0 0 0 3.567-3.574v-82.3zM99.015 60.665c-.062-.539-.5-5.176 3.88-10.22 2.691-3.073 2.253-7.597 2.253-7.597s-1.064-6.865 4.256-7.522c5.632-.695 6.383 3.604 6.57 5.838.126 2.24-.124 5.514 1.753 7.598 1.94 2.177 5.945 8.248 4.193 12.134 0 .05 0 .106-.063.163.063.025.126.05.188.081.313.213.5.532.689.87.062.069.062.138.125.207 0 .056 0 .118.062.181 0 .1.063.2.125.3 0 .12.063.238.063.357.063.157.125.313.125.476 0 .031.063.062.063.087 0 .057 0 .113.062.17 0 .093.063.193.125.28.063.12.126.232.25.339.063.094.126.188.189.275.187.182.375.35.5.526.063.019.063.037.063.056 0 .025.062.057.062.082.063.08.126.169.126.262.062.076.062.15.062.232.063.056.063.113.063.169 0 .037 0 .069-.063.106v.12a1.797 1.797 0 0 1-.313.569c-.062.037-.062.069-.125.1 0 .044-.063.087-.125.125-.063.05-.063.094-.125.144a.856.856 0 0 0-.25.188c-.126.069-.188.137-.314.206a2.74 2.74 0 0 1-.438.244c-.187.1-.312.194-.5.288-.188.094-.376.182-.5.27-.126.03-.189.068-.251.1 0 .012-.063.03-.063.043a1.696 1.696 0 0 0-.438.307l-.375.281c-.125.138-.313.276-.438.42-.126.137-.25.275-.438.419v.031c0 .025 0 .057-.063.088 0 .037 0 .075-.063.113-.125.306-.375.594-.563.87-.188.187-.375.362-.563.525a3.11 3.11 0 0 1-1.064.613c-.25.076-.5.107-.75.094a2.045 2.045 0 0 1-.69-.144 3.65 3.65 0 0 1-.563-.244c-.125-.069-.187-.137-.312-.219a3.238 3.238 0 0 1-.626-.525 2.49 2.49 0 0 1-.563-.858c-.063-.1-.063-.2-.126-.306a16.76 16.76 0 0 1-2.628-.194c-2.315-.332-4.38.175-5.57.588-.125.181-.25.357-.438.513-.125.138-.25.257-.438.363a1.827 1.827 0 0 1-.626.307 1.55 1.55 0 0 0-.25.056c-.125.012-.188.025-.313.025a3.321 3.321 0 0 1-1.502-.313c-.125-.037-.188-.081-.313-.125-.125-.069-.25-.138-.375-.213a12.27 12.27 0 0 1-.376-.238c-.062-.05-.125-.106-.187-.156v-.013c-.25-.094-.438-.175-.689-.256a9.897 9.897 0 0 0-.563-.188 9.022 9.022 0 0 0-.563-.119 2.624 2.624 0 0 0-.438-.056c-.125-.006-.25-.006-.313-.006-.25-.013-.5-.02-.751-.038a17.051 17.051 0 0 1-.563-.044c-.126-.019-.313-.031-.438-.056a1.81 1.81 0 0 1-.313-.063c-.126-.025-.188-.044-.313-.069a2.2 2.2 0 0 1-.188-.062c-.063-.013-.063-.031-.125-.05-.063-.019-.063-.038-.125-.057-.188-.1-.438-.25-.564-.45 0-.038 0-.081-.062-.119 0-.056 0-.119-.063-.175v-.257c0-.131 0-.263.063-.388 0-.075.062-.15.062-.225.063-.132.063-.27.126-.4.125-.289.187-.583.187-.883a.207.207 0 0 0 0-.263v-.269c0-.1-.062-.206-.062-.307 0-.137-.063-.281-.063-.419 0-.119 0-.231-.062-.35v-.457c0-.357.062-.72.25-1.039 0-.05.063-.1.063-.144.062-.056.062-.106.125-.163.062-.062.125-.125.187-.175.063-.081.188-.15.313-.206.125-.07.313-.12.438-.157.063-.012.126-.019.188-.025 0-.006.063-.012.063-.019l.062-.006c.063-.012.063-.025.125-.037.063-.032.126-.076.25-.12.063-.062.189-.137.251-.218.188-.138.313-.295.438-.464.063-.112.125-.219.188-.337.062-.013.062-.032.062-.044.063-.063.063-.125.126-.188.187-.213.438-.394.625-.544zm17.648.075a2.852 2.852 0 0 0-.188.106c-.062.063-.187.131-.25.207-.062.062-.125.118-.188.181-.125.169-.25.35-.313.544-.125.276-.187.564-.25.852v.319c-.062.119-.062.238-.062.356v.964c0 .107-.063.207-.063.313v1.583c0 .144 0 .282-.063.42 0 .156-.062.313-.062.469-.063.1-.063.2-.125.3 0 .038 0 .07-.063.1 0 .1-.062.2-.125.295-.063.106-.063.206-.125.313-.063.137-.125.281-.125.425-.063.163-.126.332-.126.507a1.263 1.263 0 0 0 0 .682c0 .1.063.2.063.294.063.088.063.17.125.244.188.363.438.67.751.92.125.075.188.144.313.207.063.05.125.094.188.138.125.068.25.13.375.181.125.056.313.1.438.125.188.031.438.025.626-.012.063-.013.125-.025.188-.044a2.325 2.325 0 0 0 1.001-.632c.063-.057.125-.12.188-.182.063-.069.125-.137.188-.212a1.07 1.07 0 0 0 .25-.326c.125-.119.188-.238.25-.363a5.27 5.27 0 0 0 .188-.281v-.057c.063-.037.063-.075.125-.112.125-.163.313-.32.438-.476.188-.15.313-.3.5-.444a2.34 2.34 0 0 1 .439-.326 1.8 1.8 0 0 1 .438-.275c.125-.05.188-.094.313-.144a12.3 12.3 0 0 0 .563-.3c.125-.082.313-.17.438-.257.125-.063.25-.125.313-.194.125-.063.188-.125.313-.194.063-.044.125-.094.188-.15.062-.038.125-.082.125-.125.063-.038.125-.076.125-.12.063-.024.063-.056.063-.08.062-.026.062-.05.062-.076a.604.604 0 0 0 .188-.432v-.075c0-.044 0-.087-.063-.131 0-.069-.062-.138-.125-.2v-.038a3.004 3.004 0 0 1-.438-.47 2.259 2.259 0 0 1-.563-.725 1.306 1.306 0 0 1-.25-.413c0-.075 0-.157-.063-.232 0-.112-.062-.225-.062-.338-.063-.131-.063-.263-.126-.388 0-.106-.062-.206-.125-.313 0-.068-.062-.144-.062-.219-.063-.069-.063-.137-.126-.206 0-.05 0-.1-.062-.15 0-.038-.063-.075-.063-.113a1.227 1.227 0 0 0-.563-.5c0-.026-.063-.044-.125-.057a.72.72 0 0 0-.25-.044 1.272 1.272 0 0 0-.376.031c-.062.013-.125.02-.125.032-.063.012-.063.025-.125.031 0 .006 0 .006-.063.013 0 .006-.062.012-.062.018-.438.614-1.19 1.09-2.378 1.12-1.127.032-1.377-.994-1.44-1.864zm-16.459.056c-.125 0-.25.019-.438.05-.25.081-.563.238-.75.444-.126.063-.188.138-.25.207-.063.056-.063.113-.126.169v.05c-.063.019-.063.031-.063.05 0 .031-.062.063-.062.094-.063.144-.188.275-.313.407-.063.112-.188.225-.313.325-.188.163-.375.313-.626.407a.614.614 0 0 1-.25.081 1.73 1.73 0 0 1-.188.025c0 .006 0 .013-.062.013-.126.031-.25.075-.376.144a1.708 1.708 0 0 0-.188.131c-.062.031-.062.063-.125.094 0 .025-.062.05-.062.075 0 .038-.063.081-.063.119a1.079 1.079 0 0 0-.188.6v.839c0 .138.063.27.063.407 0 .113.062.225.062.332v.181c.063.032.063.032.063.07v.631c-.063.22-.063.438-.125.651-.063.219-.188.438-.25.657 0 .069-.063.138-.063.213v.056c0 .075-.063.157-.063.238 0 .038.063.081.063.125v.088a.58.58 0 0 0 .25.219c0 .019 0 .031.063.05 0 .012.062.031.062.044.063.018.063.031.126.043 0 .02.062.038.125.05 0 .02.062.032.125.05.062.02.125.038.25.057.063.019.188.037.25.056.126.019.25.038.376.05.125.02.313.032.438.044a35.364 35.364 0 0 0 1.252.056c.062 0 .125 0 .125.007.375.031.75.125 1.126.231.188.063.376.125.626.2.188.07.376.144.563.226v.006c0 .013 0 .013.063.025 0 .019.063.044.063.063.187.125.312.231.5.338.125.068.25.131.376.187.062.05.187.094.25.138.125.031.188.063.25.088.063.025.125.043.188.062.438.113.814.15 1.252.057.187-.05.375-.138.563-.257.125-.088.25-.188.375-.3.126-.176.313-.376.438-.589.063-.175.188-.363.25-.557.063-.262.126-.544.188-.826 0-.1 0-.2-.062-.3v-.282c-.063-.119-.125-.231-.125-.344a2.65 2.65 0 0 0-.438-.62 8.43 8.43 0 0 0-.376-.419c-.062-.069-.188-.137-.25-.206-.063-.07-.188-.138-.25-.207 0-.025-.063-.056-.126-.087v-.038c-.062-.05-.125-.1-.125-.15a10.52 10.52 0 0 1-.375-.476c-.063-.162-.188-.325-.25-.494-.063-.125-.126-.257-.188-.382a21.841 21.841 0 0 0-.188-.382c0-.056-.063-.106-.063-.156-.062-.05-.062-.1-.125-.15 0-.057 0-.107-.062-.163-.063-.194-.188-.388-.25-.582-.063-.15-.188-.294-.251-.438-.063-.113-.125-.232-.188-.338a10.5 10.5 0 0 0-.188-.275c0-.07-.062-.138-.125-.2 0-.057-.062-.113-.125-.17-.25-.331-.563-.638-1.001-.8a.746.746 0 0 0-.25-.076 1.946 1.946 0 0 0-.376-.056h-.063zm13.017-14.268c0 .03-.062.056-.062.087a3.26 3.26 0 0 1-.188.125 3.722 3.722 0 0 1-.188.157c-.125.062-.188.125-.313.187l-.375.263c-.188.12-.376.232-.563.345-.25.137-.501.275-.751.4-.126.081-.313.163-.438.232-.063.025-.126.043-.188.068 0 .013-.063.025-.063.038 0 .006 0 .006-.062.012 0 .026-.063.044-.126.063-.125.031-.187.056-.312.075a2.256 2.256 0 0 1-1.064.006c-.063-.018-.125-.043-.25-.068 0-.025-.063-.05-.126-.076-.062-.018-.062-.03-.125-.05-.063-.03-.125-.068-.125-.106-.063-.031-.125-.069-.188-.1-.188-.125-.313-.25-.5-.376-.188-.156-.439-.319-.626-.481-.125-.113-.313-.226-.438-.338 0 .538-.25 2.703-1.315 4.455-1.189 2.015-3.754 7.454-2.065 9.206 1.753 1.746 3.067 2.147 3.38 3.473.375 1.327-.438 1.796-1.002 1.696 0 0 1.252 2.51 4.631 2.422 3.818-.1 4.756-2.134 4.756-2.134s.188-.882.25-1.802c.063-1.12.126-2.435.376-3.03.188-.368.438-.87 1.314-1.401.313-.188.063-1.396 1.377-1.42 1.252-.02 3.254 1.007 3.192 2.34 0 0 .688-.488-.063-1.765-.876-1.327-3.567-1.583-3.567-1.583s-.25-3.042-2.253-5.97c-1.69-2.491-1.877-4.412-1.94-4.95zm-4.193-3.173c-.062 0-.125.006-.187.012a1.65 1.65 0 0 0-.438.125c-.063.038-.188.082-.25.138l-2.129 1.765v.012c-.062.013-.062.025-.062.038 0 .012-.063.025-.063.037-.062.05-.125.113-.187.182 0 .037 0 .069-.063.106v.044c0 .081 0 .163.063.232 0 .025 0 .05.062.068v.057c.063.025.063.044.063.062.062.025.062.05.062.075.063.026.063.057.125.076.063.043.063.08.126.118.438.345.876.683 1.251 1.008.188.125.376.244.5.363.126.088.314.175.439.238.063.031.125.05.188.075.313.119.75.106 1.126 0 .063-.019.125-.038.188-.063.062-.012.062-.025.062-.037l.188-.075c.188-.075.313-.15.5-.232.189-.1.376-.206.564-.319a8.474 8.474 0 0 0 1.001-.6c.126-.088.25-.182.376-.27.125-.05.188-.1.25-.15.063-.063.125-.132.25-.2 0-.025 0-.057.063-.082.063-.069.125-.144.125-.225.063-.05.063-.1.063-.163.062-.025.062-.056.062-.081 0-.031-.062-.056-.062-.081v-.126a2.626 2.626 0 0 0-.188-.181c0-.019 0-.038-.062-.056 0-.02-.063-.038-.063-.063-.063-.025-.063-.05-.125-.075l-.188-.113c-.063-.037-.125-.081-.188-.119 0-.025-.062-.05-.125-.068a3.26 3.26 0 0 0-.188-.126c-.062-.037-.125-.068-.187-.106l-.751-.357-.564-.3c-.187-.088-.312-.175-.5-.27-.063-.012-.063-.024-.125-.043a1.997 1.997 0 0 0-.94-.25h-.062zm3.255 1.89c.062 0 .062 0 .062.006s.063.019.063.037c.062.05.062.144.062.22 0 .024-.062.043-.062.062v.013a.861.861 0 0 0-.25.181c-.439.282-.814.557-1.252.82-.125.075-.25.144-.376.213-.125.068-.25.137-.375.194-.125.068-.25.125-.438.162-.313.107-.689.132-1.064.107a6.677 6.677 0 0 1-.313-.038 1.929 1.929 0 0 1-.188-.025c0-.012-.062-.025-.125-.05-.125-.031-.188-.081-.313-.131a6.372 6.372 0 0 1-.375-.244 8.507 8.507 0 0 1-.564-.52 2.462 2.462 0 0 1-.438-.45v-.013c-.062-.012-.062-.019-.062-.031v-.163c.062-.069.125-.119.188-.119 0 0 0 .006.062.013 0 .006.063.018.063.037v.019c.062.025.062.05.062.075.188.188.376.37.564.538.125.12.25.238.375.338.125.082.25.157.375.22.063.05.188.093.313.118 0 .006.063.006.063.013.188.031.375.043.563.043.25 0 .438-.018.626-.068a2.39 2.39 0 0 0 .438-.144c.125-.057.25-.132.376-.207.125-.075.25-.156.375-.231.25-.144.5-.288.688-.438.25-.17.501-.35.751-.526l.063-.013v-.012c0-.006.063-.006.063-.006zm-3.818-2.184v-.232c-.188-1.245-.939-2.172-1.69-2.065-.688.106-1.189 1.201-1 2.447.062.57.312 1.076.562 1.445.126-.137.313-.275.501-.419a1.335 1.335 0 0 1-.375-.926c-.126-.638.062-1.19.375-1.233.313-.044.626.438.751 1.076v.463c.125-.1.25-.194.375-.287.063-.07.188-.126.25-.17.126-.043.189-.074.251-.1zm4.256 1.501c.25-.425.438-.995.5-1.62 0-1.365-.75-2.497-1.752-2.529-1.001-.03-1.815 1.052-1.877 2.422v.207c.125.037.312.081.438.137.062.038.187.082.25.12.063.037.125.068.188.106 0 .006.062.012.062.018v-.375c.063-.732.438-1.295.876-1.258.376.031.689.657.626 1.39 0 .344-.125.657-.25.882.062.05.188.1.313.15.125.081.25.156.438.244.062.031.125.069.188.106zm-2.817-41.891c1.064 0 1.94.87 1.94 1.946a1.952 1.952 0 0 1-1.94 1.953 1.952 1.952 0 0 1-1.94-1.953c0-1.076.877-1.946 1.94-1.946z"/></svg>