<svg viewBox="0 0 64 64" xmlns="http://www.w3.org/2000/svg" fill-rule="evenodd" clip-rule="evenodd" stroke-linejoin="round" stroke-miterlimit="1.414"><g transform="matrix(.23846 0 0 .53166 -5545.035 -605.36)"><path d="M23385.6 1189.41l103.7 28.38-103.7 28.39-103.6-28.39 103.6-28.38z" fill="url(#a)"/><clipPath id="b"><path d="M23385.6 1189.41l103.7 28.38-103.7 28.39-103.6-28.39 103.6-28.38z"/></clipPath><g clip-path="url(#b)"><path d="M23292.414 1212.141l92.929 26.286 101.597-28.176-101.597-16.006-92.93 17.896z" fill-opacity=".114"/></g></g><g transform="matrix(.23846 0 0 .53166 -5545.035 -614.591)"><path d="M23385.6 1189.41l103.7 28.38-103.7 28.39-103.6-28.39 103.6-28.38z" fill="url(#c)"/><clipPath id="d"><path d="M23385.6 1189.41l103.7 28.38-103.7 28.39-103.6-28.39 103.6-28.38z"/></clipPath><g clip-path="url(#d)"><path d="M23304.03 1210.032l81.313 22.49 83.913-22.49-83.913-20.369-81.313 20.37z" fill-opacity=".114"/></g></g><path d="M23385.6 1189.41l103.7 28.38-103.7 28.39-103.6-28.39 103.6-28.38z" fill="url(#e)" transform="matrix(.23846 0 0 .53166 -5545.035 -625.44)"/><path fill="none" d="M.023.082h64v64h-64z"/><defs><linearGradient id="a" x2="1" gradientUnits="userSpaceOnUse" gradientTransform="matrix(0 -52.3644 97.1539 0 23384.1 1243.44)"><stop offset="0%" stop-color="#6097f4"/><stop offset="100%" stop-color="#ff0583"/></linearGradient><linearGradient id="c" x2="1" gradientUnits="userSpaceOnUse" gradientTransform="matrix(0 -49.7239 92.2548 0 23386.6 1242.85)"><stop offset="0%" stop-color="#fcb28f"/><stop offset="100%" stop-color="#ff0583"/></linearGradient><linearGradient id="e" x2="1" gradientUnits="userSpaceOnUse" gradientTransform="matrix(0 -51.0359 94.6891 0 23386.1 1240.58)"><stop offset="0%" stop-color="#feab4b"/><stop offset="100%" stop-color="#ff0583"/></linearGradient></defs></svg>