<svg viewBox="0 0 44 51" xmlns="http://www.w3.org/2000/svg" fill-rule="evenodd" clip-rule="evenodd" stroke-linejoin="round" stroke-miterlimit="1.414"><g transform="translate(-490.006 -96.024) scale(.74316)"><path d="M688.393 131.813c15.528 0 28.135 12.607 28.135 28.135 0 15.527-12.607 28.134-28.135 28.134-8.893 0-9.484-4.582-14.641-11.034-3.217-4.023-9.449-9.198-11.746-14.48-.45-1.035-1.737-1.773-1.747-2.62-.174-15.527 12.607-28.135 28.134-28.135z" fill="url(#a)"/><clipPath id="b"><path d="M688.393 131.813c15.528 0 28.135 12.607 28.135 28.135 0 15.527-12.607 28.134-28.135 28.134-8.893 0-9.484-4.582-14.641-11.034-3.217-4.023-9.449-9.198-11.746-14.48-.45-1.035-1.737-1.773-1.747-2.62-.174-15.527 12.607-28.135 28.134-28.135z"/></clipPath><g clip-path="url(#b)"><path d="M661.086 155.836l28.519 10.157 5.453 14.134s2.568 1.457 2.517 3.076c0 0 1.925.525 2.233 2.72.31 2.195-4.795 3.2-4.795 3.2l-21.094-8.262-15.233-19.854 2.4-5.171z" fill-opacity=".176"/></g></g><path d="M692.421 134.689a30.475 30.475 0 0 0-12.487-2.658c-13.312 0-24.651 8.514-28.864 20.388.619-19.378 16.545-34.92 36.072-34.92 19.92 0 36.092 16.172 36.092 36.092 0 9.404-3.557 18.473-9.459 24.9-.543.591-1.056 1.014-1.545 1.314-.351.257-.723.497-1.115.716-4.445 2.488-9.782 1.423-11.908-2.377-2.127-3.8-.244-8.906 4.202-11.394.352-.197.709-.372 1.071-.524-2.753.622-5.526-.349-6.79-2.607-1.489-2.66-.361-6.171 2.505-8.14 3.409-3.066 4.18-7.417 4.328-8.57a1.1 1.1 0 0 0 .032-.29s-.008.103-.032.29c-.404 1.793-4.484 6.947-7.452 3.792-2.24-2.381.897-4.507.916-7.293.031-4.375-2.587-7.07-5.566-8.719z" fill="url(#c)" transform="translate(-379.052 -66.848) scale(.5831)"/><path d="M1362.28 308.774h-42.74l-21.37-46.826h35.57a8.769 8.769 0 0 0 7.17 3.714c2.96 0 5.58-1.467 7.17-3.714h35.57l-21.37 46.826zm-23.98-134.758v74.482c-3.57 1.112-6.17 4.448-6.17 8.384a8.69 8.69 0 0 0 1.61 5.066h-35.57l40.13-87.932zm5.22 0l40.13 87.932h-35.57a8.761 8.761 0 0 0 1.61-5.066c0-3.936-2.6-7.272-6.17-8.384v-74.482z" fill="url(#d)" transform="rotate(-45.452 126.102 370.766) scale(.21357)"/><path d="M654.14 300.22c-1.739-2.276-1.413-4.531 0-6.774h21.371c1.412 2.243 1.739 4.498 0 6.774H654.14z" fill="url(#e)" transform="matrix(.30063 -.30541 .32533 .32024 -274.041 151.818)"/><path d="M654.14 300.22c-1.739-2.276-1.413-4.531 0-6.774h21.371c1.412 2.243 1.739 4.498 0 6.774-6.67 1.481-13.727 1.698-21.371 0z" fill="url(#f)" transform="matrix(.30063 -.30541 .32533 .32024 -271.831 153.979)"/><path d="M42.023 1.332c.025.008.05.014.073.024a.372.372 0 0 1 .067.634.352.352 0 0 1-.14.063c-.025.005-.05.005-.076.008H1.332c-.025-.003-.052-.003-.077-.008a.358.358 0 0 1-.242-.176.37.37 0 0 1 .045-.43.37.37 0 0 1 .197-.115c.025-.005.052-.005.077-.008h40.615l.076.008z" fill="#0076fd" fill-rule="nonzero"/><circle cx="651.625" cy="117.874" r="1.671" fill="#fff" transform="translate(-474.338 -84.432) scale(.73004)"/><path d="M1.412.193a1.416 1.416 0 0 1 1.02.467 1.439 1.439 0 0 1 .368.851c.011.157-.002.315-.041.467-.11.427-.421.788-.828.96a1.423 1.423 0 0 1-1.112 0 1.443 1.443 0 0 1-.828-.96A1.418 1.418 0 0 1 .317.66a1.418 1.418 0 0 1 1.02-.467h.075zM1.349.61a1.017 1.017 0 0 0-.953 1.264 1.013 1.013 0 0 0 1.983-.381 1.023 1.023 0 0 0-.5-.75 1.027 1.027 0 0 0-.53-.133z" fill="#0076fd" fill-rule="nonzero"/><circle cx="651.625" cy="117.874" r="1.671" fill="#fff" transform="translate(-433.67 -84.432) scale(.73004)"/><path d="M42.08.193A1.416 1.416 0 0 1 43.1.66a1.439 1.439 0 0 1 .368.851c.012.157-.001.315-.04.467a1.446 1.446 0 0 1-.829.96 1.423 1.423 0 0 1-1.112 0 1.443 1.443 0 0 1-.827-.96A1.418 1.418 0 0 1 40.986.66a1.418 1.418 0 0 1 1.02-.467h.074zm-.063.417a1.017 1.017 0 0 0-.947 1.288 1.013 1.013 0 0 0 1.973-.43 1.023 1.023 0 0 0-.496-.725 1.027 1.027 0 0 0-.53-.133z" fill="#0076fd" fill-rule="nonzero"/><path fill="#fff" d="M20.235.4h2.548v2.55h-2.548z"/><path d="M23.152 3.317h-3.285V.033h3.285v3.284zM20.603.77v1.812h1.812V.769h-1.812z" fill="#0076fd" fill-rule="nonzero"/><defs><linearGradient id="a" x2="1" gradientUnits="userSpaceOnUse" gradientTransform="rotate(39.996 131.277 992.174) scale(51.0902)"><stop offset="0%" stop-color="#20364f"/><stop offset="100%" stop-color="#354f6d"/></linearGradient><linearGradient id="c" x2="1" gradientUnits="userSpaceOnUse" gradientTransform="rotate(36.924 147.612 1060.72) scale(68.041)"><stop offset="0%" stop-color="#00b7be"/><stop offset="100%" stop-color="#c3d943"/></linearGradient><linearGradient id="d" x2="1" gradientUnits="userSpaceOnUse" gradientTransform="matrix(0 107.774 -107.774 0 1298.17 201)"><stop offset="0%" stop-color="#f2d865"/><stop offset="100%" stop-color="#f99e35"/></linearGradient><linearGradient id="e" x2="1" gradientUnits="userSpaceOnUse" gradientTransform="matrix(0 -25.2308 48.8747 0 675.809 318.676)"><stop offset="0%" stop-color="#ff51b3"/><stop offset="100%" stop-color="#5006b1"/></linearGradient><linearGradient id="f" x2="1" gradientUnits="userSpaceOnUse" gradientTransform="matrix(0 -25.2308 48.8747 0 675.809 318.676)"><stop offset="0%" stop-color="#953e98"/><stop offset="100%" stop-color="#5006b1"/></linearGradient></defs></svg>