<svg viewBox="0 0 64 64" xmlns="http://www.w3.org/2000/svg" fill-rule="evenodd" clip-rule="evenodd" stroke-linejoin="round" stroke-miterlimit="1.414"><path fill="url(#a)" d="M405.449 459.89h78.063v106.586h-78.063z" transform="matrix(.44623 -.05363 .05751 .4161 -195.91 -158.216)"/><path d="M483.512 478.619l-17.463-18.729h-60.6v106.586h78.063v-87.857z" fill="url(#b)" transform="matrix(.44993 0 0 .41953 -168.015 -183.817)"/><path d="M49.546 16.964H41.69V9.107l7.857 7.857z" fill="#5daada"/><path d="M457.081 548.635v6.507h-40.175v-6.507h40.175zm-40.175-14.727h56.102v6.507h-56.102v-6.507zm0-14.727h56.102v6.507h-56.102v-6.507zm0-14.726h56.102v6.506h-56.102v-6.506zm0-14.727h56.102v6.506h-56.102v-6.506z" fill="url(#c)" transform="translate(-145.25 -174.818) scale(.39824)"/><path fill="none" d="M-.021-.01h64v64h-64z"/><defs><linearGradient id="a" x2="1" gradientUnits="userSpaceOnUse" gradientTransform="matrix(-5.85016 95.7712 -89.4172 -4.56085 444.212 464.886)"><stop offset="0%" stop-color="#8000ac"/><stop offset="100%" stop-color="#ec8aab"/></linearGradient><linearGradient id="b" x2="1" gradientUnits="userSpaceOnUse" gradientTransform="matrix(-53.7813 -97.4894 90.904 -57.6774 476.38 562.806)"><stop offset="0%" stop-color="#34c0ee"/><stop offset="100%" stop-color="#3f66af"/></linearGradient><linearGradient id="c" x2="1" gradientUnits="userSpaceOnUse" gradientTransform="rotate(91.462 -21.156 465.2) scale(58.3405)"><stop offset="0%" stop-color="#68c7c3"/><stop offset="100%" stop-color="#f7f2a6"/></linearGradient></defs></svg>