<svg viewBox="0 0 64 64" xmlns="http://www.w3.org/2000/svg" fill-rule="evenodd" clip-rule="evenodd" stroke-linejoin="round" stroke-miterlimit="1.414"><g transform="matrix(.7439 0 0 .70583 -844.008 -382.905)"><path d="M1169.5 566.982s-7.31-12.641-12.84-18.576c-5.52-5.935-6.52 7.98-6.52 7.98-.68 6.419-1.64 12.609-.95 20.557 0 0 1.08 7.706 6.02 10.378 5.05 2.729 14.29-20.339 14.29-20.339z" fill="url(#a)"/><clipPath id="b"><path d="M1169.5 566.982s-7.31-12.641-12.84-18.576c-5.52-5.935-6.52 7.98-6.52 7.98-.68 6.419-1.64 12.609-.95 20.557 0 0 1.08 7.706 6.02 10.378 5.05 2.729 14.29-20.339 14.29-20.339z"/></clipPath><g clip-path="url(#b)"><path d="M1044.06 571.424s8.15-5.322-6.97-24.491v-.976h2.13l14.04 19.879-9.2 5.588z" fill="url(#c)" transform="translate(116.682)"/></g></g><g transform="matrix(-.7439 0 0 .70583 908.031 -382.905)"><path d="M1169.5 566.982s-7.31-12.641-12.84-18.576c-5.52-5.935-6.52 7.98-6.52 7.98-.68 6.419-1.64 12.609-.95 20.557 0 0 1.08 7.706 6.02 10.378 5.05 2.729 14.29-20.339 14.29-20.339z" fill="url(#d)"/><clipPath id="e"><path d="M1169.5 566.982s-7.31-12.641-12.84-18.576c-5.52-5.935-6.52 7.98-6.52 7.98-.68 6.419-1.64 12.609-.95 20.557 0 0 1.08 7.706 6.02 10.378 5.05 2.729 14.29-20.339 14.29-20.339z"/></clipPath><g clip-path="url(#e)"><path d="M1044.06 571.424s8.15-5.322-6.97-24.491v-.976h2.13l14.04 19.879-9.2 5.588z" fill="url(#f)" transform="translate(116.682)"/></g></g><path d="M1178.38 564.58h.08c.05 0 .1 0 .15.002 13.34.163 24.12 11.042 24.12 24.418v9.352c.14 8.989-7.02 15.056-18.09 18.802-.49.166-3.08-4.871-6.26-7.885-3.18 3.014-5.76 8.051-6.25 7.885-11.08-3.746-18.24-9.813-18.09-18.802V589c0-13.376 10.77-24.255 24.11-24.418.05-.002.11-.002.16-.002h.07z" fill="url(#g)" transform="matrix(.7439 0 0 .70583 -844.547 -382.905)"/><ellipse cx="1145.55" cy="591.051" rx="2.01" ry="3.505" fill="#1c1c1c" transform="matrix(.74161 .05528 -.05402 .6524 -791.599 -418.743)"/><ellipse cx="1145.55" cy="591.051" rx="2.01" ry="3.505" fill="#1c1c1c" transform="matrix(-.74161 .05528 .05402 .6524 855.671 -418.743)"/><path d="M27.522 21.136h.047l.048.003.043.006.048.004.044.007.05.007.044.01.045.01.046.011.04.014.046.013.042.016.047.015.042.017.042.019.043.019.038.022.043.02.039.024.039.024.039.025.04.025.039.026.035.029.035.03.035.03.036.029.035.03.031.034.031.034.032.034.03.034.032.035.027.038.027.037.027.038.027.038.022.04.022.04.022.04.022.042.022.04.017.043.018.043.017.043.017.043.012.044.012.045.012.045.012.044.012.044.007.047.007.045.007.046.006.045.001.047.002.047v.046l.002.046v.045l-.004.047-.005.046-.005.047-.005.045-.005.045-.01.046-.011.046-.007.043-.016.046-.012.043-.012.043-.017.044-.018.044-.017.043-.019.042-.018.04-.024.043-.024.041-.02.039-.025.039-.025.039-.026.037-.026.037-.032.038-.026.035-.033.036-.033.034-.028.032-.033.032-.034.032-.035.03-.035.03-.035.029-.04.029-.036.027-.037.024-.042.026-.038.024-.043.023-.038.02-.044.023-.04.018-.044.02-.04.016-.046.017-.04.014-.047.015-.042.011-.048.013-.043.01-.043.007-.05.01-.043.006-.045.005-.05.006-.046.003-.046.001-.081.001-.063.004-.062.004-.057.005-.06.008-.062.008-.06.01-.06.012-.058.013-.064.016-.058.015-.057.017-.063.02-.056.019-.061.023-.06.023-.06.025-.065.029-.059.028-.063.031-.058.03-.067.037-.061.036-.062.037-.065.04-.064.043-.065.044-.063.045-.068.05-.067.051-.066.052-.075.062-.04.031-.036.027-.036.027-.036.025-.042.026-.038.023-.043.024-.038.02-.044.022-.039.019-.045.02-.04.016-.046.017-.04.014-.047.015-.042.011-.048.013-.043.01-.043.008-.049.009-.044.006-.045.005-.045.004-.05.005-.046.002h-.047l-.042-.002h-.047l-.047-.004-.049-.003-.043-.006-.044-.008-.049-.006-.045-.01-.044-.01-.046-.01-.04-.015-.047-.013-.046-.014-.042-.016-.042-.018-.042-.018-.043-.019-.038-.022-.043-.02-.039-.024-.044-.022-.039-.025-.034-.027-.04-.026-.035-.029-.04-.027-.035-.03-.03-.032-.036-.03-.031-.034-.036-.032-.031-.034-.027-.036-.031-.035-.027-.038-.027-.037-.027-.038-.026-.038-.022-.04-.027-.038-.023-.04-.017-.043-.022-.041-.017-.043-.022-.04-.013-.046-.017-.042-.017-.043-.012-.045-.012-.045-.012-.044-.007-.046-.012-.044-.007-.046-.007-.046-.001-.047-.006-.045-.002-.047v-.046l-.002-.046.005-.047v-.045l.004-.046.005-.046.005-.046.01-.047.006-.044.01-.046.012-.045.01-.045.013-.043.017-.045.012-.042.017-.044.018-.043.018-.041.02-.041.023-.042.024-.042.02-.038.025-.04.025-.038.026-.038.03-.04.027-.035.027-.035.032-.036.033-.034.028-.032.034-.033.034-.031.034-.031.035-.03.101-.082.115-.092.117-.087.112-.084.118-.084.12-.081.114-.077.121-.076.122-.074.124-.07.124-.069.126-.066.131-.065.128-.06.128-.057.135-.056.131-.052.133-.048.133-.046.14-.045.136-.04.137-.036.138-.034.14-.03.14-.028.142-.023.144-.021.14-.017.145-.014.142-.01.143-.007.127-.004.046-.001.042.003zm9.117-.002l.126.004.144.007.142.01.145.014.14.017.143.02.142.024.141.028.14.03.138.034.137.037.136.04.14.044.133.045.132.05.131.05.135.057.129.057.128.06.131.065.125.066.125.068.123.071.122.074.121.076.115.077.12.08.118.085.117.086.111.085.116.092.1.082.035.03.035.03.034.032.033.033.028.032.033.034.033.036.026.035.027.036.03.039.027.038.025.038.025.04.02.038.024.042.024.042.018.04.018.042.018.043.018.044.012.042.017.045.012.043.01.045.012.045.01.046.006.044.01.047.006.046.005.046.004.046v.045l.004.047v.046l-.002.046-.001.047-.006.045-.002.047-.007.046-.006.046-.012.044-.007.046-.012.044-.012.045-.012.045-.018.043-.017.042-.012.046-.022.04-.017.043-.023.041-.017.043-.022.04-.027.039-.022.04-.027.037-.027.038-.026.037-.027.038-.032.035-.031.034-.026.036-.036.032-.031.033-.036.031-.03.032-.036.03-.04.027-.035.029-.04.026-.034.027-.039.025-.044.022-.038.023-.044.021-.038.022-.042.019-.043.018-.042.018-.041.016-.047.014-.046.013-.04.014-.046.012-.045.01-.045.01-.049.005-.044.008-.048.004-.043.005-.048.003-.047.001-.042.002h-.046l-.046-.002-.05-.005-.046-.004-.045-.005-.044-.006-.049-.009-.043-.009-.043-.009-.047-.013-.042-.011-.047-.015-.04-.014-.046-.017-.04-.016-.045-.02-.04-.019-.043-.021-.039-.02-.043-.025-.037-.023-.042-.026-.037-.025-.036-.027-.036-.027-.04-.03-.074-.063-.066-.053-.068-.05-.067-.05-.064-.045-.064-.044-.065-.043-.065-.04-.061-.037-.061-.036-.068-.036-.057-.031-.064-.031-.059-.028-.064-.029-.06-.025-.06-.023-.061-.023-.057-.02-.062-.019-.057-.017-.059-.015-.063-.016-.06-.013-.059-.011-.06-.01-.06-.01-.062-.007-.056-.005-.063-.004-.062-.004h-.082l-.046-.002-.045-.003-.05-.006-.045-.005-.044-.007-.05-.009-.043-.008-.042-.01-.048-.012-.042-.011-.047-.015-.04-.014-.046-.017-.04-.016-.045-.02-.04-.018-.043-.022-.039-.02-.043-.024-.037-.024-.042-.026-.037-.024-.036-.027-.04-.03-.036-.028-.035-.03-.034-.03-.034-.032-.034-.032-.028-.032-.033-.034-.032-.036-.027-.035-.031-.038-.027-.037-.025-.037-.026-.039-.025-.04-.02-.038-.023-.041-.024-.043-.019-.04-.018-.042-.018-.043-.017-.044-.018-.044-.012-.043-.011-.043-.017-.046-.006-.043-.01-.046-.011-.046-.006-.045-.005-.045-.005-.047L34.85 23l-.005-.047.001-.045v-.046l.002-.046.001-.047.001-.047.007-.045.007-.046.006-.045.007-.047.012-.044.012-.044.012-.045.012-.045.012-.044.018-.043.017-.043.017-.043.017-.043.023-.04.022-.041.022-.041.022-.04.022-.04.027-.038.027-.038.026-.037.027-.038.032-.035.03-.034.032-.034.031-.034.031-.033.036-.031.035-.03.036-.03.035-.029.035-.029.04-.026.039-.025.039-.025.039-.024.038-.023.044-.021.038-.022.042-.02.043-.018.042-.017.047-.015.041-.016.046-.013.04-.014.046-.011.045-.01.045-.01.05-.007.043-.007.048-.004.043-.006.048-.003h.047l.042-.003h.047z" fill="#2f2c77"/><circle cx="973.939" cy="527.57" r="1.09" fill="#fff" transform="translate(-438.71 -228.866) scale(.49026)"/><circle cx="973.939" cy="527.57" r="1.09" fill="#fff" transform="translate(-450.82 -228.915) scale(.49026)"/><circle cx="973.939" cy="527.57" r="1.09" fill="#fff" transform="translate(-281.435 -142.384) scale(.32842)"/><circle cx="973.939" cy="527.57" r="1.09" fill="#fff" transform="translate(-293.545 -142.482) scale(.32842)"/><path d="M39.712 47.642A7.646 7.646 0 0 0 32.069 40h-.144a7.646 7.646 0 0 0-7.643 7.642v3.601a7.646 7.646 0 0 0 7.643 7.642h.144a7.646 7.646 0 0 0 7.643-7.642v-3.6z" fill="#3b4cab"/><path d="M1080.52 590.286c0-5.06-4.75-9.169-10.6-9.169h-.2c-5.85 0-10.6 4.109-10.6 9.169v4.321c0 5.06 4.75 9.169 10.6 9.169h.2c5.85 0 10.6-4.109 10.6-9.169v-4.321z" fill="url(#h)" transform="matrix(.58787 0 0 .67956 -596.917 -353.147)"/><path d="M1065.33 615.624c0-2.223-1.71-4.028-3.82-4.028s-3.83 1.805-3.83 4.028v3.684c0 2.224 1.72 4.029 3.83 4.029 2.11 0 3.82-1.805 3.82-4.029v-3.684z" fill="url(#i)" transform="matrix(1.15264 0 0 1.09364 -1191.356 -620.73)"/><path d="M24.156 52.676l-.712-2.034 1.977.284-1.265 1.75zm15.734.139l-1.293-1.724 1.97-.326-.676 2.05z" fill="#fff"/><path d="M1069.84 569.868c2.16-.238 6.53.587 10.33 3.529 4.36 3.371 8.24 8.335 8.57 9.17 1.8 4.535-1.32 11.242-7.49 12.093-4.18.578-8.5-.611-11.41-2.849-2.91 2.238-7.23 3.427-11.41 2.849-6.16-.851-9.29-7.558-7.49-12.093.34-.835 4.21-5.799 8.57-9.17 3.81-2.942 8.18-3.767 10.33-3.529z" fill="url(#j)" transform="translate(-630.696 -317.162) scale(.61947)"/><path d="M32.052 41.896s-3.083-2.04-3.083-2.564c0-.967 1.38-1.752 3.083-1.752 1.698 0 3.084.785 3.084 1.752 0 .523-3.084 2.564-3.084 2.564z" fill="#1d1b1a"/><circle cx="973.939" cy="527.57" r="1.09" fill="#fff" transform="translate(-213.73 -95.417) scale(.25438)"/><path fill="none" d="M-.017-.009h64v64h-64z"/><defs><linearGradient id="a" x2="1" gradientUnits="userSpaceOnUse" gradientTransform="rotate(21.801 -889.195 3276.514) scale(12.17186)"><stop offset="0%" stop-color="#f1d797"/><stop offset="100%" stop-color="#e2a36c"/></linearGradient><linearGradient id="c" x2="1" gradientUnits="userSpaceOnUse" gradientTransform="matrix(8.91216 15.0972 -14.3244 9.39295 1039.48 549.482)"><stop offset="0%" stop-color="#05a9ac"/><stop offset="100%" stop-color="#293578"/></linearGradient><linearGradient id="d" x2="1" gradientUnits="userSpaceOnUse" gradientTransform="rotate(21.801 -889.195 3276.514) scale(12.17186)"><stop offset="0%" stop-color="#f1d797"/><stop offset="100%" stop-color="#e2a36c"/></linearGradient><linearGradient id="f" x2="1" gradientUnits="userSpaceOnUse" gradientTransform="matrix(8.63862 16.6434 15.7915 -9.10464 1039.12 550.596)"><stop offset="0%" stop-color="#12abab"/><stop offset="100%" stop-color="#2a3677"/></linearGradient><linearGradient id="g" x2="1" gradientUnits="userSpaceOnUse" gradientTransform="matrix(0 -49.8288 47.2783 0 1178.38 614.409)"><stop offset="0%" stop-color="#1327c0"/><stop offset="100%" stop-color="#00b7b7"/></linearGradient><linearGradient id="h" x2="1" gradientUnits="userSpaceOnUse" gradientTransform="matrix(0 10.295 -11.9007 0 1069.7 591.218)"><stop offset="0%" stop-color="#6b1e4c"/><stop offset="100%" stop-color="#9e2d71"/></linearGradient><linearGradient id="i" x2="1" gradientUnits="userSpaceOnUse" gradientTransform="rotate(90 222.94 838.57) scale(7.70616)"><stop offset="0%" stop-color="#ef5075"/><stop offset="100%" stop-color="#feaac2"/></linearGradient><linearGradient id="j" x2="1" gradientUnits="userSpaceOnUse" gradientTransform="rotate(87.839 241.85 840.48) scale(20.23009)"><stop offset="0%" stop-color="#3fb6b0"/><stop offset="100%" stop-color="#292079"/></linearGradient></defs></svg>