<svg viewBox="0 0 64 64" xmlns="http://www.w3.org/2000/svg" fill-rule="evenodd" clip-rule="evenodd" stroke-miterlimit="1.5"><path fill="url(#a)" d="M1191.26 380.911h81.728v81.728h-81.728z" transform="translate(-594.977 -182.548) scale(.50882)"/><path fill="#27a1c0" d="M5.106 10.884h53.676v.763H5.106z"/><path fill="#27a1c0" d="M53.122 5.195v53.677h-.763V5.195zm-41.57 0v53.677h-.763V5.195z"/><path fill="#27a1c0" d="M5.106 52.454h53.676v.764H5.106z"/><g transform="translate(-594.977 -182.293) scale(.50882)"><path d="M1266.32 391.721a4.739 4.739 0 0 0-4.74-4.737h-58.92a4.739 4.739 0 0 0-4.74 4.737v58.926a4.739 4.739 0 0 0 4.74 4.737h58.92c2.62 0 4.74-2.123 4.74-4.737v-58.926z" fill="url(#b)"/><clipPath id="c"><path d="M1266.32 391.721a4.739 4.739 0 0 0-4.74-4.737h-58.92a4.739 4.739 0 0 0-4.74 4.737v58.926a4.739 4.739 0 0 0 4.74 4.737h58.92c2.62 0 4.74-2.123 4.74-4.737v-58.926z"/></clipPath><g clip-path="url(#c)"><g transform="translate(-1025.86 12.511) scale(2.0616)"><path fill="none" d="M1047.26 162.528h96v71.406h-96z"/><clipPath id="d"><path d="M1047.26 162.528h96v71.406h-96z"/></clipPath><g clip-path="url(#d)" fill="none" stroke="#fff" stroke-opacity=".627"><path d="M1067.803 157.5v72m9.997-72v72m9.967-72v72" stroke-width=".19"/><path d="M1144 248v72" stroke-width=".19" transform="matrix(1 0 0 1.01685 -51.248 -92.809)"/><path d="M1144 248v72" stroke-width=".19" transform="matrix(1 0 0 1.03265 -46.264 -96.8)"/><path d="M1144 248v72" stroke-width=".19" transform="matrix(1 0 0 1.02302 -41.28 -92.948)"/><path d="M1117.672 157.5v72m-44.857-72.296v72m9.968-71.704v72m24.921-72v72m4.984-72v72m9.968-72v72m-62.584-53.594h96" stroke-width=".19"/><path d="M1136 256h96" stroke-width=".19" transform="matrix(1.07061 0 0 1 -162.343 -70.136)"/><path d="M1136 256h96" stroke-width=".19" transform="matrix(1.02655 0 0 1 -108.057 -40.249)"/><path d="M1060.072 170.921h96" stroke-width=".19"/><path d="M1136 256h96" stroke-width=".19" transform="matrix(1.05626 0 0 1 -144.659 -75.066)"/><path d="M1136 256h96" stroke-width=".19" transform="matrix(1.05626 0 0 1 -145.051 -50.2)"/><path d="M1136 256h96" stroke-width=".19" transform="matrix(1.05626 0 0 1 -145.695 -45.215)"/><path d="M1136 256h96" stroke-width=".19" transform="matrix(1.08255 0 0 1 -177.046 -55.183)"/><path d="M1136 256h96" stroke-width=".18" transform="matrix(1.10731 0 0 1 -207.549 -60.253)"/><path d="M1136 256h96" stroke-width=".18" transform="matrix(1.10731 0 0 1 -207.549 -65.322)"/><path d="M1060.072 221.5h96" stroke-width=".19"/></g></g></g></g><path d="M31.38 26.238v-1.167h1.17v1.167h1.001v2.07h1.14v1.182h5.227v2.043h-.982v1.08h-1.148v1.004h-1.074v1.11h1.103v2.02h1.008v2.187l1.134-.006v2.113l-3.191.006v-1.088h-2.076v-1.064h-2.149v-1.072h-1.157v1.072h-2.152v1.064h-2.07v1.088l-3.226-.003v-2.113l1.166.003v-2.188h1.008v-2.018h1.103v-1.111h-1.074v-1.004h-1.147v-1.08h-1.027V29.49h5.27v-1.18h1.141v-2.07h1.002z" fill-opacity=".122"/><path d="M1182.22 262.238v-3.696h3.7v3.696h3.17v6.558h3.61v3.742h16.54v6.468h-3.11v3.422h-3.63v3.178h-3.4v3.518h3.49v6.393h3.19v6.928l3.59-.019v6.693l-10.1.019v-3.446h-6.57v-3.37h-6.8v-3.394h-3.66v3.394h-6.81v3.37h-6.55v3.446l-10.21-.009v-6.693l3.69.009v-6.928h3.19v-6.393h3.49v-3.518h-3.4v-3.178h-3.63v-3.422h-3.25v-6.468h16.68v-3.742h3.61v-6.558h3.17z" fill="url(#e)" transform="matrix(.316 0 0 .31576 -342.197 -57.583)"/><path fill="none" d="M-.037.081h64v64h-64z"/><defs><linearGradient id="a" x2="1" gradientUnits="userSpaceOnUse" gradientTransform="rotate(-90 848.939 -386.301) scale(81.7276)"><stop offset="0%" stop-color="#ffcc23"/><stop offset="100%" stop-color="#f04e5b"/></linearGradient><linearGradient id="b" x2="1" gradientUnits="userSpaceOnUse" gradientTransform="rotate(43.045 104.686 1720.657) scale(77.3446)"><stop offset="0%" stop-color="#1b62ae"/><stop offset="100%" stop-color="#2fb8c4"/></linearGradient><linearGradient id="e" x2="1" gradientUnits="userSpaceOnUse" gradientTransform="matrix(0 -44.8705 44.8705 0 1186.91 312)"><stop offset="0%" stop-color="#ee355a"/><stop offset="100%" stop-color="#ffe137"/></linearGradient></defs></svg>