<svg viewBox="0 0 64 64" xmlns="http://www.w3.org/2000/svg" fill-rule="evenodd" clip-rule="evenodd" stroke-linejoin="round" stroke-miterlimit="1.414"><g transform="matrix(.5222 0 0 .5134 -11656.373 -5785.136)"><path d="M22435.8 11292.1c0-2.2-1.8-4-4-4h-97.5c-2.2 0-4 1.8-4 4v77.1c0 2.2 1.8 4.1 4 4.1h97.5c2.2 0 4-1.9 4-4.1v-77.1z" fill="#54318b"/><clipPath id="a"><path d="M22435.8 11292.1c0-2.2-1.8-4-4-4h-97.5c-2.2 0-4 1.8-4 4v77.1c0 2.2 1.8 4.1 4 4.1h97.5c2.2 0 4-1.9 4-4.1v-77.1z"/></clipPath><g clip-path="url(#a)"><path fill="#fff" d="M22326 11307h111.466v67.7H22326z"/></g></g><path fill="#c4c4c4" d="M8.411 41.52H22.49v2.061H8.411zm0 4.327H22.49v2.062H8.411z"/><path fill="url(#b)" d="M22337.9 11317.7h26.959v26.959h-26.959z" transform="matrix(.5222 0 0 .5134 -11623.483 -5785.136)"/><path fill="url(#c)" d="M22337.9 11317.7h26.959v26.959h-26.959z" transform="matrix(.5222 0 0 .5134 -11656.373 -5785.136)"/><path fill="#c4c4c4" d="M41.301 41.52H55.38v2.061H41.301zm0 4.327H55.38v2.062H41.301z"/><circle cx="22339.4" cy="11297.5" r="2.937" fill="#d2503e" transform="matrix(.53332 0 0 .52434 -11904.805 -5908.64)"/><circle cx="22339.4" cy="11297.5" r="2.937" fill="#f5b540" transform="matrix(.53332 0 0 .52434 -11899.897 -5908.64)"/><circle cx="22339.4" cy="11297.5" r="2.937" fill="#86c440" transform="matrix(.53332 0 0 .52434 -11895.079 -5908.64)"/><path d="M22877.4 10978.8h3v3h-3v-3zm24.2 0h3v3h-3v-3zm-24.2-5.9h3v3h-3v-3zm24.2 0h3v3h-3v-3zm-24.2-5.9h3v3h-3v-3zm24.2 0h3v3h-3v-3zm-24.2-6h3v3h-3v-3zm24.2 0h3v3h-3v-3zm-24.2-5.9h3v3h-3v-3zm24.2 0h3v3h-3v-3zm-6.1 0h3v3h-3v-3zm-6 0h3v3h-3v-3zm-3.1 0v3h-3v-3h3z" fill="url(#d)" transform="matrix(.5222 0 0 .5134 -11921.471 -5598.832)"/><g transform="matrix(.51173 0 0 .50311 -11762.241 -5485.293)"><path fill="url(#e)" d="M23040.1 10981.7h15.277v28.149h-15.277z"/><clipPath id="f"><path d="M23040.1 10981.7h15.277v28.149h-15.277z"/></clipPath><g clip-path="url(#f)" fill-opacity=".608"><path fill="#fff" d="M23030.078 10981.7h15.277v28.149h-15.277z"/><path d="M23050.161 10981.7h15.277v28.149h-15.277z"/></g></g><g transform="matrix(.50988 0 0 .5874 -11719.472 -6411.32)"><path d="M23047.7 10970.9l7.7 11.4h-15.4l7.7-11.4z" fill="#ffe6b7"/><clipPath id="g"><path d="M23047.7 10970.9l7.7 11.4h-15.4l7.7-11.4z"/></clipPath><g clip-path="url(#g)"><path fill="url(#h)" d="M23042.4 10967.2h9.164v6.018h-9.164z" transform="matrix(0 -.66123 1 0 12077.5 26211.7)"/><path d="M23047.548 10970.285l2.6 12.076 8.6.514-3.3-8.65-7.9-3.94z" fill-opacity=".267"/></g></g><path fill="none" d="M-.037.082h64v64h-64z"/><defs><linearGradient id="b" x2="1" gradientUnits="userSpaceOnUse" gradientTransform="matrix(0 -24.2367 12.3136 0 22351.5 11342)"><stop offset="0%" stop-color="#32bec6"/><stop offset="100%" stop-color="#1b62ae"/></linearGradient><linearGradient id="c" x2="1" gradientUnits="userSpaceOnUse" gradientTransform="matrix(0 -24.2367 12.3136 0 22351.5 11342)"><stop offset="0%" stop-color="#32bec6"/><stop offset="100%" stop-color="#1b62ae"/></linearGradient><linearGradient id="d" x2="1" gradientUnits="userSpaceOnUse" gradientTransform="matrix(0 -24.5988 12.7313 0 22890.8 10980.5)"><stop offset="0%" stop-color="#6097f4"/><stop offset="100%" stop-color="#ff0583"/></linearGradient><linearGradient id="e" x2="1" gradientUnits="userSpaceOnUse" gradientTransform="matrix(0 -25.965 7.15917 0 23047.6 11008.5)"><stop offset="0%" stop-color="#6097f4"/><stop offset="100%" stop-color="#ff0583"/></linearGradient><linearGradient id="h" x2="1" gradientUnits="userSpaceOnUse" gradientTransform="matrix(0 -5.55108 4.29453 0 23047 10972.9)"><stop offset="0%" stop-color="#6097f4"/><stop offset="100%" stop-color="#ff0583"/></linearGradient></defs></svg>