<svg viewBox="0 0 64 64" xmlns="http://www.w3.org/2000/svg" fill-rule="evenodd" clip-rule="evenodd" stroke-linejoin="round" stroke-miterlimit="1.414"><path fill="none" d="M.007-.009h64v64h-64z"/><g transform="matrix(.6133 0 0 .58532 -410.127 -423.992)"><path d="M720.751 821.938c-17.283-.14-38.783-19.202-29.396-43.168 7.682-19.615 20.253-31.303 29.599-42.727 9.347 11.424 21.918 23.112 29.6 42.727 9.386 23.966-12.113 43.028-29.397 43.168l-.203.001-.203-.001z" fill="url(#a)"/><clipPath id="b"><path d="M720.751 821.938c-17.283-.14-38.783-19.202-29.396-43.168 7.682-19.615 20.253-31.303 29.599-42.727 9.347 11.424 21.918 23.112 29.6 42.727 9.386 23.966-12.113 43.028-29.397 43.168l-.203.001-.203-.001z"/></clipPath><g clip-path="url(#b)"><path d="M695.946 798.597l5.779-21.138 44.103-13.918 1.52 17.68-13.954 21.205-26.404 5.774-11.044-9.603" fill="url(#c)" transform="matrix(.95437 0 0 1 41.795 16.383)"/><path d="M734.881 731.87l-42.158 12.506-20.019 14.058 6.495 22.767 15.149 2.481 18.533-13.856 36.762-5.71-14.762-32.246z" fill="url(#d)" transform="matrix(.95437 0 0 1 41.795 16.383)"/><path d="M596.972 794.269s23.589 10.494 38.325-9.495c0 0 .449 22.53-26.563 20.819-27.013-1.711-18.203-11.192-15.057-11.324 3.145-.133 3.295 0 3.295 0z" fill="url(#e)" transform="matrix(.95437 0 0 1 144.173 16.383)"/><path d="M618.074 730.599S581.072 743 573.876 762.244c-4.615 12.34 12.42 9.921 17.144 4.235 5.494-6.613 19.626-15.627 33.374-14.68 7.882.542 12.607 3.291 14.424 7.968l-20.744-29.168z" fill="url(#f)" transform="matrix(.95437 0 0 1 144.292 16.383)"/><path d="M700.611 796.236c.079-1.773 1.599-12.442 13.651-12.664 11.411-.211 14.49-.318 21.443-2.387 6.954-2.07 8.041-11.447 7.891-13.006-.15-1.559-4.645 7.474-4.645 7.474l-17.344 4.923-12.985 1.284-3.597 1.114-5.035 5.587-.823 3.317 1.444 4.358z" fill="url(#g)" transform="matrix(.95437 0 0 1 41.795 16.383)"/><g transform="matrix(.95437 0 0 1 128.75 20.933)"><path d="M605.789 731.668s6.395-8.63 14.935-8.543c8.541.086 14.373 7.188 15.065 11.02.496 2.745 1.284 11.865-12.105 10.279-13.39-1.586-25.056-4.521-33.629 12.104 2.79-9.323 6.754-18.267 15.734-24.86z" fill="url(#h)"/><clipPath id="i"><path d="M605.789 731.668s6.395-8.63 14.935-8.543c8.541.086 14.373 7.188 15.065 11.02.496 2.745 1.284 11.865-12.105 10.279-13.39-1.586-25.056-4.521-33.629 12.104 2.79-9.323 6.754-18.267 15.734-24.86z"/></clipPath><g clip-path="url(#i)"><path d="M588.515 742.057s19.827-10.36 29.838-4.243c9.68 5.915 3.05 11.962-4.478 11.439-6.305-.438-28.696 10.007-34.908 11.685-1.205.326-1.115-4.371-1.115-4.371l10.663-14.51z" fill="url(#j)" transform="translate(11.968 -4.55)"/><path d="M727.536 743.501s-3.188 7.01-19.071 3.612c-16.663-3.566-24.281 8.963-24.281 8.963l12.367-5.574s31.808 4.527 30.985-3.389c-.823-7.917 0-3.612 0-3.612z" fill="url(#k)" transform="translate(-91.112 -4.55)"/></g></g><g transform="matrix(.95437 0 0 1 127.94 22.157)"><path d="M589.468 758.942s-2.741 14.602 7.555 15.711c10.295 1.109 17.423-9.766 17.423-9.766s11.336-14.085 20.968-14.853c9.633-.768 15.098 2.05 17.319 7.464 2.257 5.501 1.358 16.392-15.242 18.332-8.266.966-13.528-.03-17.925 1.086-2.385.605-4.516 1.832-6.734 4.329-6.307 7.102-.944 16.042 6.96 17.651 7.903 1.61 8.662 1.049 8.662 1.049l-20.112 1s-23.024-9.148-21.181-39.273l2.307-2.73z" fill="url(#l)"/><clipPath id="m"><path d="M589.468 758.942s-2.741 14.602 7.555 15.711c10.295 1.109 17.423-9.766 17.423-9.766s11.336-14.085 20.968-14.853c9.633-.768 15.098 2.05 17.319 7.464 2.257 5.501 1.358 16.392-15.242 18.332-8.266.966-13.528-.03-17.925 1.086-2.385.605-4.516 1.832-6.734 4.329-6.307 7.102-.944 16.042 6.96 17.651 7.903 1.61 8.662 1.049 8.662 1.049l-20.112 1s-23.024-9.148-21.181-39.273l2.307-2.73z"/></clipPath><g clip-path="url(#m)"><path d="M678.886 780.956s7.01 11.693 17.863 9.895c10.853-1.799 14.203 14.894 14.203 14.894s-20.019 6.096-32.066-21.933c-12.047-28.028 0-2.856 0-2.856z" fill="url(#n)" transform="translate(-90.264 -5.774)"/><path d="M630.531 756.386s10.355 5.844-3.234 14.102c-13.588 8.259-18.591 0-18.591 0l-3.169-6.497s9.294-14.857 24.994-7.605z" fill="url(#o)" transform="translate(15.687 -5.774)"/><path d="M678.471 767.727s-.898 16.303 12.132 13.815c10.446-1.995 13.854-8.757 15.413-10.446 5.427-5.876 14.744-15.348 26.905-13.983 11.88 1.334 11.874 7.276 14.075 9.736l-4.548-9.136s-10.269-8.915-23.96-2.188c-13.691 6.727-16.901 16.923-16.901 16.923s-15.521 11.903-19.007 1.891c-3.487-10.013-2.406-12.103-2.406-12.103s-1.625.136-1.703 5.491z" fill="url(#p)" transform="translate(-90.264 -5.774)"/></g></g></g></g><defs><linearGradient id="a" x2="1" gradientUnits="userSpaceOnUse" gradientTransform="matrix(0 -11.2634 10.7495 0 721.001 748.631)"><stop offset="0%" stop-color="#3a3893"/><stop offset="100%" stop-color="#b70eff"/></linearGradient><linearGradient id="c" x2="1" gradientUnits="userSpaceOnUse" gradientTransform="rotate(-32.379 1728.989 -811.65) scale(51.1037)"><stop offset="0%" stop-color="#e33941"/><stop offset="100%" stop-color="#fdce12"/></linearGradient><linearGradient id="d" x2="1" gradientUnits="userSpaceOnUse" gradientTransform="rotate(148.17 256.417 477.874) scale(49.8594)"><stop offset="0%" stop-color="#feda0a"/><stop offset="100%" stop-color="#47ab47"/></linearGradient><linearGradient id="e" x2="1" gradientUnits="userSpaceOnUse" gradientTransform="rotate(2.46 -18305 14542.034) scale(27.0281)"><stop offset="0%" stop-color="#ef6ba6" stop-opacity="0"/><stop offset="47%" stop-color="#fba564" stop-opacity=".769"/><stop offset="100%" stop-color="#ffb650"/></linearGradient><linearGradient id="f" x2="1" gradientUnits="userSpaceOnUse" gradientTransform="rotate(118.449 72.062 549.913) scale(22.0253)"><stop offset="0%" stop-color="#67b045" stop-opacity="0"/><stop offset="100%" stop-color="#9bf879"/></linearGradient><linearGradient id="g" x2="1" gradientUnits="userSpaceOnUse" gradientTransform="rotate(-19.556 2645.804 -1632.995) scale(41.151)"><stop offset="0%" stop-color="#e2bad8" stop-opacity="0"/><stop offset="50%" stop-color="#f8ad9e"/><stop offset="100%" stop-color="#dbb1d3" stop-opacity="0"/></linearGradient><linearGradient id="h" x2="1" gradientUnits="userSpaceOnUse" gradientTransform="matrix(45.9508 0 0 33.4038 590.055 739.826)"><stop offset="0%" stop-color="#47daff"/><stop offset="100%" stop-color="#006efe"/></linearGradient><linearGradient id="j" x2="1" gradientUnits="userSpaceOnUse" gradientTransform="rotate(17.018 -2177.757 2359.054) scale(26.45884)"><stop offset="0%" stop-color="#91ccd9" stop-opacity="0"/><stop offset="100%" stop-color="#88d9df"/></linearGradient><linearGradient id="k" x2="1" gradientUnits="userSpaceOnUse" gradientTransform="matrix(41.6603 0 0 11.7612 685.891 748.395)"><stop offset="0%" stop-color="#f9e7f1" stop-opacity="0"/><stop offset="100%" stop-color="#bbe4e9"/></linearGradient><linearGradient id="l" x2="1" gradientUnits="userSpaceOnUse" gradientTransform="rotate(-2.872 15744.063 -11458.088) scale(49.41174)"><stop offset="0%" stop-color="#febc15"/><stop offset="100%" stop-color="#ed2184"/></linearGradient><linearGradient id="n" x2="1" gradientUnits="userSpaceOnUse" gradientTransform="rotate(141.052 208.235 519.674) scale(7.60086)"><stop offset="0%" stop-color="#fecc58" stop-opacity="0"/><stop offset="100%" stop-color="#fecc58"/></linearGradient><linearGradient id="o" x2="1" gradientUnits="userSpaceOnUse" gradientTransform="rotate(9.362 -4340.682 4142.594) scale(18.49828)"><stop offset="0%" stop-color="#d55da3" stop-opacity="0"/><stop offset="100%" stop-color="#ff59c5"/></linearGradient><linearGradient id="p" x2="1" gradientUnits="userSpaceOnUse" gradientTransform="rotate(-11.931 4031.26 -2876.62) scale(57.5393)"><stop offset="0%" stop-color="#fed982"/><stop offset="26%" stop-color="#d39aab" stop-opacity=".271"/><stop offset="50%" stop-color="#c383ba" stop-opacity="0"/><stop offset="72%" stop-color="#c989bc" stop-opacity=".29"/><stop offset="100%" stop-color="#d798c2"/></linearGradient></defs></svg>