<svg viewBox="0 0 64 64" xmlns="http://www.w3.org/2000/svg" fill-rule="evenodd" clip-rule="evenodd" stroke-linejoin="round" stroke-miterlimit="1.414"><g transform="translate(-521.901 -211.556) scale(.4804)"><path fill="url(#a)" d="M1104 467.26h88.74V556H1104z"/><clipPath id="b"><path d="M1104 467.26h88.74V556H1104z"/></clipPath><g clip-path="url(#b)"><path fill-opacity=".122" d="M1118.748 464.699h76.74v76.74h-76.74z"/></g></g><path fill="url(#c)" d="M1104 467.26h88.74V556H1104z" transform="translate(-415.685 -173.845) scale(.39378)"/><path d="M1169.41 565.878l-10.11-10.11-44.13 20.958 20.96-44.128-10.11-10.11h43.39v43.39z" fill="url(#d)" transform="translate(-552.743 -255.897) scale(.51583)"/><path d="M30.928 16.426h16.569V32.99l2.997 2.998V13.606H28.113l2.815 2.82z" fill-opacity=".122"/><path d="M19.108 11.072c.069.017.088.017.152.05.12.061.213.17.254.297.023.069.02.088.025.159V43.82c-.002.026-.002.053-.006.08a.516.516 0 0 1-.868.282.514.514 0 0 1-.143-.282c-.005-.027-.005-.054-.007-.08V11.578c.006-.071.004-.09.026-.159a.515.515 0 0 1 .328-.328c.068-.022.088-.02.158-.025l.08.006zm33.249-1.449c.026.006.052.011.078.02a.51.51 0 0 1 .142.9.519.519 0 0 1-.22.092c-.027.004-.054.004-.08.006H20.034c-.027-.002-.054-.002-.08-.006a.517.517 0 0 1-.376-.274.517.517 0 0 1 .223-.688.518.518 0 0 1 .153-.05c.026-.004.053-.004.08-.006h32.243l.08.006zm0 34.964c.026.006.052.01.078.018a.516.516 0 0 1 .298.255.518.518 0 0 1-.156.646.519.519 0 0 1-.22.092c-.027.004-.054.004-.08.006H20.034c-.027-.002-.054-.002-.08-.006a.533.533 0 0 1-.282-.144.517.517 0 0 1 0-.724.514.514 0 0 1 .282-.143c.026-.005.053-.005.08-.007h32.243l.08.007zm1.714-33.515c.07.017.088.017.152.05.12.061.213.17.254.297.023.069.02.088.026.159V43.82c-.002.026-.002.053-.007.08a.514.514 0 0 1-.273.376.517.517 0 0 1-.688-.224.517.517 0 0 1-.05-.152c-.004-.027-.004-.054-.006-.08V11.578c.005-.071.003-.09.025-.159a.515.515 0 0 1 .328-.328c.07-.022.088-.02.159-.025l.08.006z" fill="#4271b7" fill-rule="nonzero"/><path fill="#fde7f2" d="M17.777 43.842h2.486v2.486h-2.486z"/><path d="M20.647 46.712h-3.254v-3.254h3.254v3.254zm-2.486-2.486v1.718h1.718v-1.718h-1.718z" fill="#4271b7" fill-rule="nonzero"/><path fill="#fde7f2" d="M52.74 43.842h2.486v2.486H52.74z"/><path d="M55.61 46.712h-3.254v-3.254h3.254v3.254zm-2.486-2.486v1.718h1.719v-1.718h-1.72z" fill="#4271b7" fill-rule="nonzero"/><path fill="#fde7f2" d="M17.777 8.878h2.486v2.487h-2.486z"/><path d="M20.647 11.749h-3.254V8.494h3.254v3.255zm-2.486-2.487v1.719h1.718V9.262h-1.718z" fill="#4271b7" fill-rule="nonzero"/><path fill="#fde7f2" d="M52.74 8.878h2.486v2.487H52.74z"/><path d="M55.61 11.749h-3.254V8.494h3.254v3.255zm-2.486-2.487v1.719h1.719V9.262h-1.72z" fill="#4271b7" fill-rule="nonzero"/><path fill="none" d="M.045-.01h64v64h-64z"/><defs><linearGradient id="a" x2="1" gradientUnits="userSpaceOnUse" gradientTransform="matrix(0 -88.7404 63.386 0 1148.37 556)"><stop offset="0%" stop-color="#ed2388"/><stop offset="100%" stop-color="#fed311"/></linearGradient><linearGradient id="c" x2="1" gradientUnits="userSpaceOnUse" gradientTransform="rotate(-135.151 705.983 28.673) scale(109.5942)"><stop offset="0%" stop-color="#6ae300"/><stop offset="50%" stop-color="#02d1ff"/><stop offset="100%" stop-color="#0e8b94"/></linearGradient><linearGradient id="d" x2="1" gradientUnits="userSpaceOnUse" gradientTransform="rotate(41.758 -132.95 1755.315) scale(34.4075)"><stop offset="0%" stop-color="#fec534"/><stop offset="100%" stop-color="#ef5085"/></linearGradient></defs></svg>