<svg viewBox="0 0 158 44" xmlns="http://www.w3.org/2000/svg" fill-rule="evenodd" clip-rule="evenodd"><path d="M21.73 1.71a20 20 0 1 1 .01 40.02 20 20 0 0 1-.01-40.02z" fill="url(#a)"/><path d="M41.4 25.43a71.3 71.3 0 0 0-6.46 5.28c-4.49 4.22-7.07 7.52-9.94 10.73a20.01 20.01 0 0 0 16.4-16.01z" fill="#88a03e"/><path d="M14.83 7.94L1.73 22.61c.11 2.45.66 4.8 1.58 6.94L20.53 2.92l-5.7 5.02" fill="url(#b)"/><path d="M1.85 19.4a20.56 20.56 0 0 0-.12 3.2l13.1-14.66L1.86 19.4" fill="#88a03e"/><path d="M1.89 19.12L19.35 1.86A20.01 20.01 0 0 0 1.89 19.12z" fill="url(#c)"/><path d="M19.3 1.86L1.87 19.12c0 .1 0 .19-.02.28l13-11.46 5.69-5.02L3.31 29.56a18.86 18.86 0 0 0 1.22 2.39l.03.06c.22.36.45.72.7 1.07l.11.16.67.89.11.14c.27.33.55.66.84.98l.02.02c.28.3.57.6.87.88l.13.13c.63.58 1.3 1.13 1.99 1.64l.1.07c.35.25.7.48 1.06.7l.01.02c.77.47 1.56.9 2.39 1.26l.05.03c.83.36 1.68.67 2.56.93l.04.01c1.33.38 2.72.63 4.16.72.06-11.5 4.02-25.85 10.12-37.93A20.14 20.14 0 0 0 19.3 1.86" fill="url(#d)"/><path d="M61.37 17.28a6.29 6.29 0 0 0 1.48-.19 4.3 4.3 0 0 0 1.18-.52v-2.69h-1.66a.3.3 0 0 1-.23-.1.33.33 0 0 1-.09-.22v-.94h3.3v4.68a5.85 5.85 0 0 1-1.78.99 6.7 6.7 0 0 1-2.3.32 5 5 0 0 1-3.82-1.72 5.94 5.94 0 0 1-1.1-1.97 8.1 8.1 0 0 1-.38-2.53c0-.93.12-1.77.38-2.54.26-.76.62-1.42 1.1-1.97a4.9 4.9 0 0 1 1.73-1.27 6.18 6.18 0 0 1 4.47-.04 4.5 4.5 0 0 1 1.6 1.13l-.41.75c-.09.15-.2.23-.33.23a.48.48 0 0 1-.26-.1 6.97 6.97 0 0 1-.42-.28 3.5 3.5 0 0 0-1.35-.6 4.62 4.62 0 0 0-2.71.23c-.5.22-.91.54-1.25.96-.35.41-.61.92-.8 1.51a6.7 6.7 0 0 0-.27 2c0 .76.1 1.45.28 2.05.2.6.47 1.12.82 1.54a3.52 3.52 0 0 0 2.82 1.3zm10.19-3.88v5.08h-1.44V6.3h3.03c.67 0 1.26.08 1.75.23.5.16.9.38 1.23.68.32.3.56.65.71 1.07.16.41.23.88.23 1.4 0 .42-.06.83-.18 1.2a3.3 3.3 0 0 1-2.46 2.24c.18.12.34.3.48.52l3.13 4.84h-1.29a.62.62 0 0 1-.58-.35l-2.78-4.35a.86.86 0 0 0-.28-.3.88.88 0 0 0-.45-.08h-1.1zm0-1.2h1.52c.42 0 .8-.06 1.12-.18a2.06 2.06 0 0 0 1.3-1.25c.1-.3.16-.62.16-.98 0-.72-.21-1.27-.63-1.64-.42-.37-1.05-.55-1.88-.55h-1.59v4.6zm19.25 6.28H89.7a.44.44 0 0 1-.31-.11.69.69 0 0 1-.18-.28l-1-2.94H83.4l-1 2.94c-.04.1-.1.2-.19.27a.44.44 0 0 1-.3.12h-1.13L85.06 6.3h1.47l4.28 12.18zm-7.02-4.52h4L86.11 9c-.11-.3-.22-.69-.32-1.15a19.96 19.96 0 0 1-.32 1.16l-1.68 4.95zm8.37-7.66h1.16c.13 0 .24.04.32.1.08.08.14.18.18.29l3.03 8.6c.07.19.13.4.19.62l.17.7a15.36 15.36 0 0 1 .33-1.33l3-8.59a.7.7 0 0 1 .19-.27.44.44 0 0 1 .31-.12h1.17l-4.37 12.18h-1.3L92.15 6.3z" fill="#fff" fill-rule="nonzero"/><rect x="106.24" y="6.3" width="1.45" height="12.18" fill="#fff" fill-rule="nonzero"/><path d="M120.26 6.3v1.38h-3.46v10.8h-1.45V7.68h-3.48V6.3h8.39z" fill="#fff" fill-rule="nonzero"/><g fill="none" transform="translate(-234.9 -128.82) scale(.54587)"><path d="M554.47 292.12c0 1.75-.29 3.35-.87 4.81a11.05 11.05 0 0 1-2.46 3.78 11 11 0 0 1-3.8 2.46 13.4 13.4 0 0 1-4.94.87h-9.1V280.2h9.1c1.8 0 3.45.3 4.93.88a10.98 10.98 0 0 1 6.27 6.22c.58 1.46.87 3.07.87 4.82zm-4.53 0c0-1.31-.18-2.48-.53-3.52a7.47 7.47 0 0 0-1.5-2.64 6.46 6.46 0 0 0-2.37-1.66 8.14 8.14 0 0 0-3.14-.57h-4.63v16.78h4.63c1.17 0 2.22-.2 3.14-.58a6.47 6.47 0 0 0 2.37-1.65 7.47 7.47 0 0 0 1.5-2.64c.35-1.04.53-2.21.53-3.52zm27.01-11.92v3.53h-10.57v6.6h8.32v3.42h-8.32v6.74h10.57v3.55H561.9V280.2h15.04zm20.57 4.33a1.2 1.2 0 0 1-.42.52c-.16.1-.35.14-.57.14-.22 0-.46-.08-.74-.25l-.97-.57c-.38-.21-.81-.4-1.31-.57-.5-.17-1.1-.26-1.77-.26a5.2 5.2 0 0 0-1.61.23 3.4 3.4 0 0 0-1.16.62 2.5 2.5 0 0 0-.7.94c-.15.37-.23.78-.23 1.22 0 .56.16 1.02.47 1.4.32.37.73.69 1.25.95.51.27 1.1.5 1.76.71.66.21 1.33.43 2.02.67.69.24 1.36.51 2.02.82.66.32 1.25.71 1.76 1.2.52.47.94 1.05 1.25 1.75.31.69.47 1.53.47 2.52 0 1.08-.18 2.08-.55 3.03a7 7 0 0 1-1.62 2.45 7.6 7.6 0 0 1-2.6 1.65c-1.02.4-2.19.6-3.5.6a11.35 11.35 0 0 1-7.84-3.13l1.29-2.13c.12-.15.26-.28.43-.39.17-.1.36-.15.57-.15.28 0 .57.11.9.34.31.22.69.47 1.12.75.44.27.95.52 1.53.75.6.22 1.3.34 2.12.34 1.27 0 2.25-.3 2.94-.9.7-.6 1.04-1.46 1.04-2.58a2.4 2.4 0 0 0-.47-1.54 3.8 3.8 0 0 0-1.25-1c-.51-.26-1.1-.5-1.76-.68l-2.01-.6a20.5 20.5 0 0 1-2.01-.8 6.5 6.5 0 0 1-1.77-1.2 5.48 5.48 0 0 1-1.24-1.86 7.05 7.05 0 0 1-.47-2.74 6.5 6.5 0 0 1 2.03-4.74 7.47 7.47 0 0 1 2.45-1.53 8.91 8.91 0 0 1 3.31-.58c1.41 0 2.7.22 3.9.66a8.77 8.77 0 0 1 3.03 1.85l-1.09 2.1z"/><rect x="606.94" y="280.2" width="4.45" height="23.84"/><path d="M631.65 300.77c1 0 1.87-.09 2.62-.27.74-.18 1.44-.43 2.11-.75v-4.33h-2.98a.93.93 0 0 1-.68-.24.78.78 0 0 1-.24-.59v-2.5h7.93v9.64a13.02 13.02 0 0 1-3.99 1.95 17.9 17.9 0 0 1-5.12.62c-1.73 0-3.33-.3-4.8-.9a11.39 11.39 0 0 1-6.28-6.38c-.6-1.5-.9-3.13-.9-4.9 0-1.8.29-3.44.87-4.93a11.1 11.1 0 0 1 2.48-3.86 11.07 11.07 0 0 1 3.9-2.5c1.53-.6 3.25-.9 5.15-.9 1.94 0 3.63.3 5.05.87 1.42.58 2.63 1.33 3.62 2.25l-1.29 2.01c-.25.4-.58.61-1 .61a1.5 1.5 0 0 1-.81-.26l-1.08-.63a7.3 7.3 0 0 0-1.22-.54 9.82 9.82 0 0 0-3.42-.53c-1.18 0-2.24.2-3.2.6-.94.39-1.75.95-2.42 1.7a7.65 7.65 0 0 0-1.55 2.64 10.4 10.4 0 0 0-.55 3.47c0 1.37.2 2.6.58 3.67a7.7 7.7 0 0 0 1.62 2.7c.69.75 1.51 1.3 2.47 1.7.96.39 2 .58 3.13.58zm19.18-20.57c.2 0 .36 0 .5.02.12.02.24.05.35.1.1.05.2.12.3.22.1.09.2.21.33.37l12.51 15.94a16.7 16.7 0 0 1-.11-2.16v-14.5h3.9v23.85h-2.28c-.36 0-.65-.06-.88-.17-.23-.1-.46-.3-.68-.59l-12.46-15.88a23.65 23.65 0 0 1 .1 2v14.64h-3.9V280.2h2.32zm41.59 0v3.53h-10.56v6.6h8.32v3.42h-8.32v6.74h10.56v3.55H677.4V280.2h15.03zm12.38 14.52v9.32h-4.43V280.2h7.27c1.63 0 3.02.17 4.18.5 1.16.34 2.11.8 2.85 1.41.75.6 1.3 1.33 1.64 2.17a7.36 7.36 0 0 1 .16 5.05 6.58 6.58 0 0 1-2.67 3.48c-.65.44-1.4.8-2.23 1.06.56.31 1.04.77 1.45 1.36l5.97 8.8h-4c-.38 0-.7-.07-.98-.22a2 2 0 0 1-.68-.66l-5.01-7.64c-.19-.28-.4-.49-.62-.6a2.17 2.17 0 0 0-1-.19h-1.9zm0-3.18h2.78c.83 0 1.56-.1 2.18-.31a4.2 4.2 0 0 0 1.53-.87c.4-.37.7-.8.9-1.3.2-.51.3-1.07.3-1.67 0-1.21-.4-2.14-1.2-2.8-.8-.64-2-.96-3.65-.96h-2.83v7.91z"/></g><g fill="#fff" fill-rule="nonzero" transform="translate(-234.9 -128.82) scale(.54587)"><path d="M554.47 292.12c0 1.75-.29 3.35-.87 4.81a11.05 11.05 0 0 1-2.46 3.78 11 11 0 0 1-3.8 2.46 13.4 13.4 0 0 1-4.94.87h-9.1V280.2h9.1c1.8 0 3.45.3 4.93.88a10.98 10.98 0 0 1 6.27 6.22c.58 1.46.87 3.07.87 4.82zm-4.53 0c0-1.31-.18-2.48-.53-3.52a7.47 7.47 0 0 0-1.5-2.64 6.46 6.46 0 0 0-2.37-1.66 8.14 8.14 0 0 0-3.14-.57h-4.63v16.78h4.63c1.17 0 2.22-.2 3.14-.58a6.47 6.47 0 0 0 2.37-1.65 7.47 7.47 0 0 0 1.5-2.64c.35-1.04.53-2.21.53-3.52zm27.01-11.92v3.53h-10.57v6.6h8.32v3.42h-8.32v6.74h10.57v3.55H561.9V280.2h15.04zm20.57 4.33a1.2 1.2 0 0 1-.42.52c-.16.1-.35.14-.57.14-.22 0-.46-.08-.74-.25l-.97-.57c-.38-.21-.81-.4-1.31-.57-.5-.17-1.1-.26-1.77-.26a5.2 5.2 0 0 0-1.61.23 3.4 3.4 0 0 0-1.16.62 2.5 2.5 0 0 0-.7.94c-.15.37-.23.78-.23 1.22 0 .56.16 1.02.47 1.4.32.37.73.69 1.25.95.51.27 1.1.5 1.76.71.66.21 1.33.43 2.02.67.69.24 1.36.51 2.02.82.66.32 1.25.71 1.76 1.2.52.47.94 1.05 1.25 1.75.31.69.47 1.53.47 2.52 0 1.08-.18 2.08-.55 3.03a7 7 0 0 1-1.62 2.45 7.6 7.6 0 0 1-2.6 1.65c-1.02.4-2.19.6-3.5.6a11.35 11.35 0 0 1-7.84-3.13l1.29-2.13c.12-.15.26-.28.43-.39.17-.1.36-.15.57-.15.28 0 .57.11.9.34.31.22.69.47 1.12.75.44.27.95.52 1.53.75.6.22 1.3.34 2.12.34 1.27 0 2.25-.3 2.94-.9.7-.6 1.04-1.46 1.04-2.58a2.4 2.4 0 0 0-.47-1.54 3.8 3.8 0 0 0-1.25-1c-.51-.26-1.1-.5-1.76-.68l-2.01-.6a20.5 20.5 0 0 1-2.01-.8 6.5 6.5 0 0 1-1.77-1.2 5.48 5.48 0 0 1-1.24-1.86 7.05 7.05 0 0 1-.47-2.74 6.5 6.5 0 0 1 2.03-4.74 7.47 7.47 0 0 1 2.45-1.53 8.91 8.91 0 0 1 3.31-.58c1.41 0 2.7.22 3.9.66a8.77 8.77 0 0 1 3.03 1.85l-1.09 2.1z"/><rect x="606.94" y="280.2" width="4.45" height="23.84"/><path d="M631.65 300.77c1 0 1.87-.09 2.62-.27.74-.18 1.44-.43 2.11-.75v-4.33h-2.98a.93.93 0 0 1-.68-.24.78.78 0 0 1-.24-.59v-2.5h7.93v9.64a13.02 13.02 0 0 1-3.99 1.95 17.9 17.9 0 0 1-5.12.62c-1.73 0-3.33-.3-4.8-.9a11.39 11.39 0 0 1-6.28-6.38c-.6-1.5-.9-3.13-.9-4.9 0-1.8.29-3.44.87-4.93a11.1 11.1 0 0 1 2.48-3.86 11.07 11.07 0 0 1 3.9-2.5c1.53-.6 3.25-.9 5.15-.9 1.94 0 3.63.3 5.05.87 1.42.58 2.63 1.33 3.62 2.25l-1.29 2.01c-.25.4-.58.61-1 .61a1.5 1.5 0 0 1-.81-.26l-1.08-.63a7.3 7.3 0 0 0-1.22-.54 9.82 9.82 0 0 0-3.42-.53c-1.18 0-2.24.2-3.2.6-.94.39-1.75.95-2.42 1.7a7.65 7.65 0 0 0-1.55 2.64 10.4 10.4 0 0 0-.55 3.47c0 1.37.2 2.6.58 3.67a7.7 7.7 0 0 0 1.62 2.7c.69.75 1.51 1.3 2.47 1.7.96.39 2 .58 3.13.58zm19.18-20.57c.2 0 .36 0 .5.02.12.02.24.05.35.1.1.05.2.12.3.22.1.09.2.21.33.37l12.51 15.94a16.7 16.7 0 0 1-.11-2.16v-14.5h3.9v23.85h-2.28c-.36 0-.65-.06-.88-.17-.23-.1-.46-.3-.68-.59l-12.46-15.88a23.65 23.65 0 0 1 .1 2v14.64h-3.9V280.2h2.32zm41.59 0v3.53h-10.56v6.6h8.32v3.42h-8.32v6.74h10.56v3.55H677.4V280.2h15.03zm12.38 14.52v9.32h-4.43V280.2h7.27c1.63 0 3.02.17 4.18.5 1.16.34 2.11.8 2.85 1.41.75.6 1.3 1.33 1.64 2.17a7.36 7.36 0 0 1 .16 5.05 6.58 6.58 0 0 1-2.67 3.48c-.65.44-1.4.8-2.23 1.06.56.31 1.04.77 1.45 1.36l5.97 8.8h-4c-.38 0-.7-.07-.98-.22a2 2 0 0 1-.68-.66l-5.01-7.64c-.19-.28-.4-.49-.62-.6a2.17 2.17 0 0 0-1-.19h-1.9zm0-3.18h2.78c.83 0 1.56-.1 2.18-.31a4.2 4.2 0 0 0 1.53-.87c.4-.37.7-.8.9-1.3.2-.51.3-1.07.3-1.67 0-1.21-.4-2.14-1.2-2.8-.8-.64-2-.96-3.65-.96h-2.83v7.91z"/></g><defs><radialGradient id="a" cx="0" cy="0" r="1" gradientUnits="userSpaceOnUse" gradientTransform="matrix(40.0288 0 0 39.9925 21.73 21.71)"><stop offset="0%" stop-color="#fff101"/><stop offset="100%" stop-color="#e6da1a"/></radialGradient><linearGradient id="b" x2="1" gradientUnits="userSpaceOnUse" gradientTransform="matrix(18.5672 -20.6884 20.7072 18.5503 1.86 22.71)"><stop offset="0%" stop-color="#cfdc5e"/><stop offset="100%" stop-color="#bfca65"/></linearGradient><linearGradient id="c" x2="1" gradientUnits="userSpaceOnUse" gradientTransform="matrix(17.2478 -13.4097 13.4219 17.2321 2 14.69)"><stop offset="0%" stop-color="#cfdc5e"/><stop offset="100%" stop-color="#bfca65"/></linearGradient><linearGradient id="d" x2="1" gradientUnits="userSpaceOnUse" gradientTransform="matrix(14.2898 -35.8573 35.8899 14.2768 11.02 38.03)"><stop offset="0%" stop-color="#d91963"/><stop offset="100%" stop-color="#981245"/></linearGradient></defs></svg>